<svg width="224" height="50" viewBox="0 0 224 50" fill="none" xmlns="http://www.w3.org/2000/svg">
<path d="M21.0114 30.16C20.1367 30.16 19.3314 30.0213 18.5954 29.744C17.8701 29.456 17.2354 29.056 16.6914 28.544C16.1474 28.0213 15.7261 27.408 15.4274 26.704C15.1287 26 14.9794 25.232 14.9794 24.4C14.9794 23.568 15.1287 22.8 15.4274 22.096C15.7261 21.392 16.1474 20.784 16.6914 20.272C17.2461 19.7493 17.8914 19.3493 18.6274 19.072C19.3634 18.784 20.1687 18.64 21.0434 18.64C21.9927 18.64 22.8461 18.7947 23.6034 19.104C24.3714 19.4133 25.0167 19.8667 25.5394 20.464L24.2274 21.744C23.7901 21.3067 23.3154 20.9867 22.8034 20.784C22.3021 20.5707 21.7474 20.464 21.1394 20.464C20.5527 20.464 20.0087 20.56 19.5074 20.752C19.0061 20.944 18.5741 21.216 18.2114 21.568C17.8487 21.92 17.5661 22.336 17.3634 22.816C17.1714 23.296 17.0754 23.824 17.0754 24.4C17.0754 24.9653 17.1714 25.488 17.3634 25.968C17.5661 26.448 17.8487 26.8693 18.2114 27.232C18.5741 27.584 19.0007 27.856 19.4914 28.048C19.9821 28.24 20.5261 28.336 21.1234 28.336C21.6781 28.336 22.2114 28.2507 22.7234 28.08C23.2461 27.8987 23.7421 27.6 24.2114 27.184L25.3954 28.736C24.8087 29.2053 24.1261 29.5627 23.3474 29.808C22.5794 30.0427 21.8007 30.16 21.0114 30.16ZM23.4274 28.464V24.272H25.3954V28.736L23.4274 28.464ZM31.9628 30.112C31.0134 30.112 30.1814 29.9253 29.4668 29.552C28.7628 29.168 28.2134 28.6453 27.8188 27.984C27.4348 27.3227 27.2428 26.5707 27.2428 25.728C27.2428 24.8747 27.4294 24.1227 27.8028 23.472C28.1868 22.8107 28.7094 22.2933 29.3708 21.92C30.0428 21.5467 30.8054 21.36 31.6588 21.36C32.4908 21.36 33.2321 21.5413 33.8828 21.904C34.5334 22.2667 35.0454 22.7787 35.4188 23.44C35.7921 24.1013 35.9788 24.88 35.9788 25.776C35.9788 25.8613 35.9734 25.9573 35.9628 26.064C35.9628 26.1707 35.9574 26.272 35.9468 26.368H28.8268V25.04H34.8908L34.1068 25.456C34.1174 24.9653 34.0161 24.5333 33.8028 24.16C33.5894 23.7867 33.2961 23.4933 32.9228 23.28C32.5601 23.0667 32.1388 22.96 31.6588 22.96C31.1681 22.96 30.7361 23.0667 30.3628 23.28C30.0001 23.4933 29.7121 23.792 29.4988 24.176C29.2961 24.5493 29.1948 24.992 29.1948 25.504V25.824C29.1948 26.336 29.3121 26.7893 29.5468 27.184C29.7814 27.5787 30.1121 27.8827 30.5388 28.096C30.9654 28.3093 31.4561 28.416 32.0108 28.416C32.4908 28.416 32.9228 28.3413 33.3068 28.192C33.6908 28.0427 34.0321 27.808 34.3308 27.488L35.4028 28.72C35.0188 29.168 34.5334 29.5147 33.9468 29.76C33.3708 29.9947 32.7094 30.112 31.9628 30.112ZM40.5399 30.112C39.8252 30.112 39.1372 30.0213 38.4759 29.84C37.8252 29.648 37.3079 29.4187 36.9239 29.152L37.6919 27.632C38.0759 27.8773 38.5346 28.08 39.0679 28.24C39.6012 28.4 40.1346 28.48 40.6679 28.48C41.2972 28.48 41.7506 28.3947 42.0279 28.224C42.3159 28.0533 42.4599 27.824 42.4599 27.536C42.4599 27.3013 42.3639 27.1253 42.1719 27.008C41.9799 26.88 41.7292 26.784 41.4199 26.72C41.1106 26.656 40.7639 26.5973 40.3799 26.544C40.0066 26.4907 39.6279 26.4213 39.2439 26.336C38.8706 26.24 38.5292 26.1067 38.2199 25.936C37.9106 25.7547 37.6599 25.5147 37.4679 25.216C37.2759 24.9173 37.1799 24.5227 37.1799 24.032C37.1799 23.488 37.3346 23.0187 37.6439 22.624C37.9532 22.2187 38.3852 21.9093 38.9399 21.696C39.5052 21.472 40.1719 21.36 40.9399 21.36C41.5159 21.36 42.0972 21.424 42.6839 21.552C43.2706 21.68 43.7559 21.8613 44.1399 22.096L43.3719 23.616C42.9666 23.3707 42.5559 23.2053 42.1399 23.12C41.7346 23.024 41.3292 22.976 40.9239 22.976C40.3159 22.976 39.8626 23.0667 39.5639 23.248C39.2759 23.4293 39.1319 23.6587 39.1319 23.936C39.1319 24.192 39.2279 24.384 39.4199 24.512C39.6119 24.64 39.8626 24.7413 40.1719 24.816C40.4812 24.8907 40.8226 24.9547 41.1959 25.008C41.5799 25.0507 41.9586 25.12 42.3319 25.216C42.7052 25.312 43.0466 25.4453 43.3559 25.616C43.6759 25.776 43.9319 26.0053 44.1239 26.304C44.3159 26.6027 44.4119 26.992 44.4119 27.472C44.4119 28.0053 44.2519 28.4693 43.9319 28.864C43.6226 29.2587 43.1799 29.568 42.6039 29.792C42.0279 30.0053 41.3399 30.112 40.5399 30.112ZM50.0543 30.112C49.1583 30.112 48.3583 29.9253 47.6543 29.552C46.9609 29.168 46.4169 28.6453 46.0223 27.984C45.6276 27.3227 45.4303 26.5707 45.4303 25.728C45.4303 24.8747 45.6276 24.1227 46.0223 23.472C46.4169 22.8107 46.9609 22.2933 47.6543 21.92C48.3583 21.5467 49.1583 21.36 50.0543 21.36C50.8863 21.36 51.6169 21.5307 52.2463 21.872C52.8863 22.2027 53.3716 22.6933 53.7023 23.344L52.1663 24.24C51.9103 23.8347 51.5956 23.536 51.2223 23.344C50.8596 23.152 50.4649 23.056 50.0383 23.056C49.5476 23.056 49.1049 23.1627 48.7103 23.376C48.3156 23.5893 48.0063 23.8987 47.7823 24.304C47.5583 24.6987 47.4463 25.1733 47.4463 25.728C47.4463 26.2827 47.5583 26.7627 47.7823 27.168C48.0063 27.5627 48.3156 27.8667 48.7103 28.08C49.1049 28.2933 49.5476 28.4 50.0383 28.4C50.4649 28.4 50.8596 28.304 51.2223 28.112C51.5956 27.92 51.9103 27.6213 52.1663 27.216L53.7023 28.112C53.3716 28.752 52.8863 29.248 52.2463 29.6C51.6169 29.9413 50.8863 30.112 50.0543 30.112ZM60.201 21.36C60.8837 21.36 61.4917 21.4933 62.025 21.76C62.569 22.0267 62.9957 22.4373 63.305 22.992C63.6143 23.536 63.769 24.24 63.769 25.104V30H61.769V25.36C61.769 24.6027 61.5877 24.0373 61.225 23.664C60.873 23.2907 60.377 23.104 59.737 23.104C59.2677 23.104 58.8517 23.2 58.489 23.392C58.1263 23.584 57.8437 23.872 57.641 24.256C57.449 24.6293 57.353 25.104 57.353 25.68V30H55.353V18.128H57.353V23.76L56.921 23.056C57.2197 22.512 57.6517 22.096 58.217 21.808C58.793 21.5093 59.4543 21.36 60.201 21.36ZM71.5701 30V28.272L71.4581 27.904V24.88C71.4581 24.2933 71.2821 23.84 70.9301 23.52C70.5781 23.1893 70.0448 23.024 69.3301 23.024C68.8501 23.024 68.3755 23.0987 67.9061 23.248C67.4475 23.3973 67.0581 23.6053 66.7381 23.872L65.9541 22.416C66.4128 22.064 66.9568 21.8027 67.5861 21.632C68.2261 21.4507 68.8875 21.36 69.5701 21.36C70.8075 21.36 71.7621 21.6587 72.4341 22.256C73.1168 22.8427 73.4581 23.7547 73.4581 24.992V30H71.5701ZM68.8821 30.112C68.2421 30.112 67.6821 30.0053 67.2021 29.792C66.7221 29.568 66.3488 29.264 66.0821 28.88C65.8261 28.4853 65.6981 28.0427 65.6981 27.552C65.6981 27.072 65.8101 26.64 66.0341 26.256C66.2688 25.872 66.6475 25.568 67.1701 25.344C67.6928 25.12 68.3861 25.008 69.2501 25.008H71.7301V26.336H69.3941C68.7115 26.336 68.2528 26.448 68.0181 26.672C67.7835 26.8853 67.6661 27.152 67.6661 27.472C67.6661 27.8347 67.8101 28.1227 68.0981 28.336C68.3861 28.5493 68.7861 28.656 69.2981 28.656C69.7888 28.656 70.2261 28.544 70.6101 28.32C71.0048 28.096 71.2875 27.7653 71.4581 27.328L71.7941 28.528C71.6021 29.0293 71.2555 29.4187 70.7541 29.696C70.2635 29.9733 69.6395 30.112 68.8821 30.112ZM71.2981 20.112C71.0315 20.112 70.8021 20.0267 70.6101 19.856C70.4288 19.6747 70.3381 19.44 70.3381 19.152C70.3381 18.864 70.4288 18.6293 70.6101 18.448C70.8021 18.2667 71.0315 18.176 71.2981 18.176C71.5648 18.176 71.7888 18.2667 71.9701 18.448C72.1621 18.6293 72.2581 18.864 72.2581 19.152C72.2581 19.44 72.1621 19.6747 71.9701 19.856C71.7888 20.0267 71.5648 20.112 71.2981 20.112ZM68.1941 20.112C67.9275 20.112 67.6981 20.0267 67.5061 19.856C67.3248 19.6747 67.2341 19.44 67.2341 19.152C67.2341 18.864 67.3248 18.6293 67.5061 18.448C67.6981 18.2667 67.9275 18.176 68.1941 18.176C68.4608 18.176 68.6848 18.2667 68.8661 18.448C69.0581 18.6293 69.1541 18.864 69.1541 19.152C69.1541 19.44 69.0581 19.6747 68.8661 19.856C68.6848 20.0267 68.4608 20.112 68.1941 20.112ZM76.2969 30V20.976C76.2969 20.08 76.5582 19.3653 77.0809 18.832C77.6142 18.288 78.3716 18.016 79.3529 18.016C79.7049 18.016 80.0356 18.0533 80.3449 18.128C80.6649 18.2027 80.9316 18.32 81.1449 18.48L80.6009 19.984C80.4516 19.8667 80.2809 19.7813 80.0889 19.728C79.8969 19.664 79.6996 19.632 79.4969 19.632C79.0809 19.632 78.7662 19.7493 78.5529 19.984C78.3396 20.208 78.2329 20.5493 78.2329 21.008V21.968L78.2969 22.864V30H76.2969ZM74.8889 23.12V21.52H80.5849V23.12H74.8889ZM85.1471 30.112C84.2085 30.112 83.4831 29.872 82.9711 29.392C82.4591 28.9013 82.2031 28.1813 82.2031 27.232V19.568H84.2031V27.184C84.2031 27.5893 84.3045 27.904 84.5071 28.128C84.7205 28.352 85.0138 28.464 85.3871 28.464C85.8351 28.464 86.2085 28.3467 86.5071 28.112L87.0671 29.536C86.8325 29.728 86.5445 29.872 86.2031 29.968C85.8618 30.064 85.5098 30.112 85.1471 30.112ZM80.7951 23.12V21.52H86.4911V23.12H80.7951ZM91.3524 30.112C90.6377 30.112 89.9497 30.0213 89.2884 29.84C88.6377 29.648 88.1204 29.4187 87.7364 29.152L88.5044 27.632C88.8884 27.8773 89.3471 28.08 89.8804 28.24C90.4137 28.4 90.9471 28.48 91.4804 28.48C92.1097 28.48 92.5631 28.3947 92.8404 28.224C93.1284 28.0533 93.2724 27.824 93.2724 27.536C93.2724 27.3013 93.1764 27.1253 92.9844 27.008C92.7924 26.88 92.5417 26.784 92.2324 26.72C91.9231 26.656 91.5764 26.5973 91.1924 26.544C90.8191 26.4907 90.4404 26.4213 90.0564 26.336C89.6831 26.24 89.3417 26.1067 89.0324 25.936C88.7231 25.7547 88.4724 25.5147 88.2804 25.216C88.0884 24.9173 87.9924 24.5227 87.9924 24.032C87.9924 23.488 88.1471 23.0187 88.4564 22.624C88.7657 22.2187 89.1977 21.9093 89.7524 21.696C90.3177 21.472 90.9844 21.36 91.7524 21.36C92.3284 21.36 92.9097 21.424 93.4964 21.552C94.0831 21.68 94.5684 21.8613 94.9524 22.096L94.1844 23.616C93.7791 23.3707 93.3684 23.2053 92.9524 23.12C92.5471 23.024 92.1417 22.976 91.7364 22.976C91.1284 22.976 90.6751 23.0667 90.3764 23.248C90.0884 23.4293 89.9444 23.6587 89.9444 23.936C89.9444 24.192 90.0404 24.384 90.2324 24.512C90.4244 24.64 90.6751 24.7413 90.9844 24.816C91.2937 24.8907 91.6351 24.9547 92.0084 25.008C92.3924 25.0507 92.7711 25.12 93.1444 25.216C93.5177 25.312 93.8591 25.4453 94.1684 25.616C94.4884 25.776 94.7444 26.0053 94.9364 26.304C95.1284 26.6027 95.2244 26.992 95.2244 27.472C95.2244 28.0053 95.0644 28.4693 94.7444 28.864C94.4351 29.2587 93.9924 29.568 93.4164 29.792C92.8404 30.0053 92.1524 30.112 91.3524 30.112ZM101.683 30.112C100.957 30.112 100.312 29.952 99.7468 29.632C99.1814 29.312 98.7334 28.832 98.4028 28.192C98.0828 27.5413 97.9228 26.72 97.9228 25.728C97.9228 24.7253 98.0881 23.904 98.4188 23.264C98.7601 22.624 99.2134 22.1493 99.7788 21.84C100.355 21.52 100.989 21.36 101.683 21.36C102.525 21.36 103.267 21.5413 103.907 21.904C104.557 22.2667 105.069 22.7733 105.443 23.424C105.827 24.0747 106.019 24.8427 106.019 25.728C106.019 26.6133 105.827 27.3813 105.443 28.032C105.069 28.6827 104.557 29.1947 103.907 29.568C103.267 29.9307 102.525 30.112 101.683 30.112ZM96.9468 30V18.128H98.9468V23.44L98.7868 25.712L98.8508 27.984V30H96.9468ZM101.459 28.4C101.939 28.4 102.365 28.2933 102.739 28.08C103.123 27.8667 103.427 27.5573 103.651 27.152C103.875 26.7467 103.987 26.272 103.987 25.728C103.987 25.1733 103.875 24.6987 103.651 24.304C103.427 23.8987 103.123 23.5893 102.739 23.376C102.365 23.1627 101.939 23.056 101.459 23.056C100.979 23.056 100.547 23.1627 100.163 23.376C99.7788 23.5893 99.4748 23.8987 99.2508 24.304C99.0268 24.6987 98.9148 25.1733 98.9148 25.728C98.9148 26.272 99.0268 26.7467 99.2508 27.152C99.4748 27.5573 99.7788 27.8667 100.163 28.08C100.547 28.2933 100.979 28.4 101.459 28.4ZM111.932 30.112C110.982 30.112 110.15 29.9253 109.436 29.552C108.732 29.168 108.182 28.6453 107.788 27.984C107.404 27.3227 107.212 26.5707 107.212 25.728C107.212 24.8747 107.398 24.1227 107.772 23.472C108.156 22.8107 108.678 22.2933 109.34 21.92C110.012 21.5467 110.774 21.36 111.628 21.36C112.46 21.36 113.201 21.5413 113.852 21.904C114.502 22.2667 115.014 22.7787 115.388 23.44C115.761 24.1013 115.948 24.88 115.948 25.776C115.948 25.8613 115.942 25.9573 115.932 26.064C115.932 26.1707 115.926 26.272 115.916 26.368H108.796V25.04H114.86L114.076 25.456C114.086 24.9653 113.985 24.5333 113.772 24.16C113.558 23.7867 113.265 23.4933 112.892 23.28C112.529 23.0667 112.108 22.96 111.628 22.96C111.137 22.96 110.705 23.0667 110.332 23.28C109.969 23.4933 109.681 23.792 109.468 24.176C109.265 24.5493 109.164 24.992 109.164 25.504V25.824C109.164 26.336 109.281 26.7893 109.516 27.184C109.75 27.5787 110.081 27.8827 110.508 28.096C110.934 28.3093 111.425 28.416 111.98 28.416C112.46 28.416 112.892 28.3413 113.276 28.192C113.66 28.0427 114.001 27.808 114.3 27.488L115.372 28.72C114.988 29.168 114.502 29.5147 113.916 29.76C113.34 29.9947 112.678 30.112 111.932 30.112ZM121.485 30.112C120.663 30.112 119.922 29.9307 119.261 29.568C118.61 29.1947 118.098 28.6827 117.725 28.032C117.351 27.3813 117.165 26.6133 117.165 25.728C117.165 24.8427 117.351 24.0747 117.725 23.424C118.098 22.7733 118.61 22.2667 119.261 21.904C119.922 21.5413 120.663 21.36 121.485 21.36C122.199 21.36 122.839 21.52 123.405 21.84C123.97 22.1493 124.418 22.624 124.749 23.264C125.079 23.904 125.245 24.7253 125.245 25.728C125.245 26.72 125.085 27.5413 124.765 28.192C124.445 28.832 124.002 29.312 123.437 29.632C122.871 29.952 122.221 30.112 121.485 30.112ZM121.725 28.4C122.205 28.4 122.631 28.2933 123.005 28.08C123.389 27.8667 123.693 27.5573 123.917 27.152C124.151 26.7467 124.269 26.272 124.269 25.728C124.269 25.1733 124.151 24.6987 123.917 24.304C123.693 23.8987 123.389 23.5893 123.005 23.376C122.631 23.1627 122.205 23.056 121.725 23.056C121.245 23.056 120.813 23.1627 120.429 23.376C120.055 23.5893 119.751 23.8987 119.517 24.304C119.293 24.6987 119.181 25.1733 119.181 25.728C119.181 26.272 119.293 26.7467 119.517 27.152C119.751 27.5573 120.055 27.8667 120.429 28.08C120.813 28.2933 121.245 28.4 121.725 28.4ZM124.317 30V27.984L124.397 25.712L124.237 23.44V18.128H126.221V30H124.317ZM128.853 30V21.456H130.853V30H128.853ZM129.861 20.048C129.488 20.048 129.178 19.9307 128.933 19.696C128.698 19.4613 128.581 19.1787 128.581 18.848C128.581 18.5067 128.698 18.224 128.933 18C129.178 17.7653 129.488 17.648 129.861 17.648C130.234 17.648 130.538 17.76 130.773 17.984C131.018 18.1973 131.141 18.4693 131.141 18.8C131.141 19.152 131.024 19.4507 130.789 19.696C130.554 19.9307 130.245 20.048 129.861 20.048ZM138.326 21.36C139.009 21.36 139.617 21.4933 140.15 21.76C140.694 22.0267 141.121 22.4373 141.43 22.992C141.739 23.536 141.894 24.24 141.894 25.104V30H139.894V25.36C139.894 24.6027 139.713 24.0373 139.35 23.664C138.998 23.2907 138.502 23.104 137.862 23.104C137.393 23.104 136.977 23.2 136.614 23.392C136.251 23.584 135.969 23.872 135.766 24.256C135.574 24.6293 135.478 25.104 135.478 25.68V30H133.478V21.456H135.382V23.76L135.046 23.056C135.345 22.512 135.777 22.096 136.342 21.808C136.918 21.5093 137.579 21.36 138.326 21.36ZM148.319 33.216C147.529 33.216 146.756 33.1093 145.999 32.896C145.252 32.6933 144.639 32.3947 144.159 32L145.055 30.496C145.428 30.8053 145.897 31.0507 146.463 31.232C147.039 31.424 147.62 31.52 148.207 31.52C149.145 31.52 149.833 31.3013 150.271 30.864C150.708 30.4373 150.927 29.792 150.927 28.928V27.408L151.087 25.472L151.023 23.536V21.456H152.927V28.704C152.927 30.2507 152.532 31.3867 151.743 32.112C150.953 32.848 149.812 33.216 148.319 33.216ZM148.063 29.616C147.252 29.616 146.516 29.4453 145.855 29.104C145.204 28.752 144.687 28.2667 144.303 27.648C143.929 27.0293 143.743 26.304 143.743 25.472C143.743 24.6507 143.929 23.9307 144.303 23.312C144.687 22.6933 145.204 22.2133 145.855 21.872C146.516 21.5307 147.252 21.36 148.063 21.36C148.788 21.36 149.439 21.504 150.015 21.792C150.591 22.08 151.049 22.528 151.391 23.136C151.743 23.744 151.919 24.5227 151.919 25.472C151.919 26.4213 151.743 27.2053 151.391 27.824C151.049 28.432 150.591 28.8853 150.015 29.184C149.439 29.472 148.788 29.616 148.063 29.616ZM148.367 27.92C148.868 27.92 149.316 27.8187 149.711 27.616C150.105 27.4027 150.409 27.1147 150.623 26.752C150.847 26.3787 150.959 25.952 150.959 25.472C150.959 24.992 150.847 24.5707 150.623 24.208C150.409 23.8347 150.105 23.552 149.711 23.36C149.316 23.1573 148.868 23.056 148.367 23.056C147.865 23.056 147.412 23.1573 147.007 23.36C146.612 23.552 146.303 23.8347 146.079 24.208C145.865 24.5707 145.759 24.992 145.759 25.472C145.759 25.952 145.865 26.3787 146.079 26.752C146.303 27.1147 146.612 27.4027 147.007 27.616C147.412 27.8187 147.865 27.92 148.367 27.92ZM159.172 30.112C158.447 30.112 157.807 29.9787 157.252 29.712C156.697 29.4347 156.265 29.0187 155.956 28.464C155.647 27.8987 155.492 27.1893 155.492 26.336V21.456H157.492V26.064C157.492 26.832 157.663 27.408 158.004 27.792C158.356 28.1653 158.852 28.352 159.492 28.352C159.961 28.352 160.367 28.256 160.708 28.064C161.06 27.872 161.332 27.584 161.524 27.2C161.727 26.816 161.828 26.3413 161.828 25.776V21.456H163.828V30H161.924V27.696L162.26 28.4C161.972 28.9547 161.551 29.3813 160.996 29.68C160.441 29.968 159.833 30.112 159.172 30.112ZM171.295 21.36C171.977 21.36 172.585 21.4933 173.119 21.76C173.663 22.0267 174.089 22.4373 174.399 22.992C174.708 23.536 174.863 24.24 174.863 25.104V30H172.863V25.36C172.863 24.6027 172.681 24.0373 172.319 23.664C171.967 23.2907 171.471 23.104 170.831 23.104C170.361 23.104 169.945 23.2 169.583 23.392C169.22 23.584 168.937 23.872 168.735 24.256C168.543 24.6293 168.447 25.104 168.447 25.68V30H166.447V21.456H168.351V23.76L168.015 23.056C168.313 22.512 168.745 22.096 169.311 21.808C169.887 21.5093 170.548 21.36 171.295 21.36ZM181.288 33.216C180.498 33.216 179.725 33.1093 178.968 32.896C178.221 32.6933 177.608 32.3947 177.128 32L178.024 30.496C178.397 30.8053 178.866 31.0507 179.432 31.232C180.008 31.424 180.589 31.52 181.176 31.52C182.114 31.52 182.802 31.3013 183.24 30.864C183.677 30.4373 183.896 29.792 183.896 28.928V27.408L184.056 25.472L183.992 23.536V21.456H185.896V28.704C185.896 30.2507 185.501 31.3867 184.712 32.112C183.922 32.848 182.781 33.216 181.288 33.216ZM181.032 29.616C180.221 29.616 179.485 29.4453 178.824 29.104C178.173 28.752 177.656 28.2667 177.272 27.648C176.898 27.0293 176.712 26.304 176.712 25.472C176.712 24.6507 176.898 23.9307 177.272 23.312C177.656 22.6933 178.173 22.2133 178.824 21.872C179.485 21.5307 180.221 21.36 181.032 21.36C181.757 21.36 182.408 21.504 182.984 21.792C183.56 22.08 184.018 22.528 184.36 23.136C184.712 23.744 184.888 24.5227 184.888 25.472C184.888 26.4213 184.712 27.2053 184.36 27.824C184.018 28.432 183.56 28.8853 182.984 29.184C182.408 29.472 181.757 29.616 181.032 29.616ZM181.336 27.92C181.837 27.92 182.285 27.8187 182.68 27.616C183.074 27.4027 183.378 27.1147 183.592 26.752C183.816 26.3787 183.928 25.952 183.928 25.472C183.928 24.992 183.816 24.5707 183.592 24.208C183.378 23.8347 183.074 23.552 182.68 23.36C182.285 23.1573 181.837 23.056 181.336 23.056C180.834 23.056 180.381 23.1573 179.976 23.36C179.581 23.552 179.272 23.8347 179.048 24.208C178.834 24.5707 178.728 24.992 178.728 25.472C178.728 25.952 178.834 26.3787 179.048 26.752C179.272 27.1147 179.581 27.4027 179.976 27.616C180.381 27.8187 180.834 27.92 181.336 27.92ZM192.541 30.112C191.592 30.112 190.76 29.9253 190.045 29.552C189.341 29.168 188.792 28.6453 188.397 27.984C188.013 27.3227 187.821 26.5707 187.821 25.728C187.821 24.8747 188.008 24.1227 188.381 23.472C188.765 22.8107 189.288 22.2933 189.949 21.92C190.621 21.5467 191.384 21.36 192.237 21.36C193.069 21.36 193.81 21.5413 194.461 21.904C195.112 22.2667 195.624 22.7787 195.997 23.44C196.37 24.1013 196.557 24.88 196.557 25.776C196.557 25.8613 196.552 25.9573 196.541 26.064C196.541 26.1707 196.536 26.272 196.525 26.368H189.405V25.04H195.469L194.685 25.456C194.696 24.9653 194.594 24.5333 194.381 24.16C194.168 23.7867 193.874 23.4933 193.501 23.28C193.138 23.0667 192.717 22.96 192.237 22.96C191.746 22.96 191.314 23.0667 190.941 23.28C190.578 23.4933 190.29 23.792 190.077 24.176C189.874 24.5493 189.773 24.992 189.773 25.504V25.824C189.773 26.336 189.89 26.7893 190.125 27.184C190.36 27.5787 190.69 27.8827 191.117 28.096C191.544 28.3093 192.034 28.416 192.589 28.416C193.069 28.416 193.501 28.3413 193.885 28.192C194.269 28.0427 194.61 27.808 194.909 27.488L195.981 28.72C195.597 29.168 195.112 29.5147 194.525 29.76C193.949 29.9947 193.288 30.112 192.541 30.112ZM203.326 21.36C204.009 21.36 204.617 21.4933 205.15 21.76C205.694 22.0267 206.121 22.4373 206.43 22.992C206.739 23.536 206.894 24.24 206.894 25.104V30H204.894V25.36C204.894 24.6027 204.713 24.0373 204.35 23.664C203.998 23.2907 203.502 23.104 202.862 23.104C202.393 23.104 201.977 23.2 201.614 23.392C201.251 23.584 200.969 23.872 200.766 24.256C200.574 24.6293 200.478 25.104 200.478 25.68V30H198.478V21.456H200.382V23.76L200.046 23.056C200.345 22.512 200.777 22.096 201.342 21.808C201.918 21.5093 202.579 21.36 203.326 21.36Z" fill="white"/>
<path d="M197.895 1H24.4545C11.501 1 1.00004 11.501 1.00008 24.4545C1.00004 38.0106 11.9894 49 25.5454 49H198.895C211.842 49 222.307 38.4466 222.198 25.5C222.307 12.0011 211.394 1 197.895 1Z" stroke="white" stroke-width="2"/>
</svg>
