<svg width="275" height="114" viewBox="0 0 275 114" fill="none" xmlns="http://www.w3.org/2000/svg">
<g filter="url(#filter0_d_223_1635)">
<rect x="35" y="35" width="205" height="44" rx="9.11111" fill="#FF4B32"/>
</g>
<path d="M60.4347 59.6961V50.0189H63.8252V59.6961C63.8252 60.639 63.6088 61.4559 63.1762 62.1469C62.7499 62.8379 62.1687 63.3739 61.4325 63.7549C60.7028 64.1295 59.8826 64.3168 58.972 64.3168C58.0292 64.3168 57.1896 64.1586 56.4534 63.8421C55.7237 63.5257 55.1489 63.0381 54.7291 62.3794C54.3158 61.7207 54.1092 60.8812 54.1092 59.8608H57.519C57.519 60.3387 57.5739 60.7132 57.6837 60.9845C57.7934 61.2493 57.9549 61.4365 58.168 61.5463C58.3876 61.6496 58.6556 61.7013 58.972 61.7013C59.282 61.7013 59.5436 61.6238 59.7567 61.4688C59.9762 61.3074 60.1441 61.0781 60.2604 60.7811C60.3766 60.4775 60.4347 60.1159 60.4347 59.6961ZM75.6917 61.5076V64.123H68.1746V61.5076H75.6917ZM69.3855 50.0189V64.123H65.9854V50.0189H69.3855ZM74.723 55.6179V58.1462H68.1746V55.6179H74.723ZM75.7207 50.0189V52.644H68.1746V50.0189H75.7207ZM84.1096 50.0189V64.123H80.7095V50.0189H84.1096ZM88.3525 50.0189V52.644H76.5635V50.0189H88.3525ZM100.355 61.5076V64.123H90.1446V61.5076H100.355ZM100.287 51.7625L91.8301 64.123H89.3696V62.331L97.9232 50.0189H100.287V51.7625ZM99.1922 50.0189V52.644H89.3212V50.0189H99.1922ZM108.734 50.0189V64.123H105.334V50.0189H108.734ZM112.977 50.0189V52.644H101.188V50.0189H112.977ZM124.533 58.1268H120.901L120.881 55.8988H123.826C124.356 55.8988 124.779 55.8407 125.095 55.7245C125.411 55.6018 125.641 55.4242 125.783 55.1917C125.931 54.9592 126.006 54.6686 126.006 54.3199C126.006 53.9195 125.931 53.5966 125.783 53.3512C125.634 53.1058 125.399 52.9282 125.076 52.8184C124.759 52.7021 124.349 52.644 123.845 52.644H122.179V64.123H118.779V50.0189H123.845C124.717 50.0189 125.495 50.0996 126.18 50.261C126.865 50.416 127.446 50.655 127.924 50.9779C128.408 51.3008 128.776 51.7076 129.028 52.1984C129.28 52.6828 129.406 53.2543 129.406 53.913C129.406 54.4878 129.283 55.027 129.038 55.5307C128.792 56.0345 128.382 56.4445 127.807 56.761C127.239 57.071 126.461 57.2324 125.473 57.2453L124.533 58.1268ZM124.398 64.123H120.077L121.24 61.5076H124.398C124.863 61.5076 125.234 61.4365 125.512 61.2945C125.796 61.1459 125.999 60.9522 126.122 60.7132C126.251 60.4678 126.316 60.1966 126.316 59.8995C126.316 59.5379 126.254 59.2247 126.132 58.9599C126.015 58.6951 125.828 58.4917 125.57 58.3496C125.311 58.2011 124.966 58.1268 124.533 58.1268H121.676L121.695 55.8988H125.114L125.909 56.79C126.852 56.7513 127.598 56.8837 128.146 57.1872C128.702 57.4907 129.099 57.8911 129.338 58.3884C129.577 58.8856 129.696 59.4055 129.696 59.948C129.696 60.8715 129.496 61.6432 129.096 62.2632C128.702 62.8831 128.111 63.3481 127.323 63.6581C126.535 63.9681 125.56 64.123 124.398 64.123ZM141.292 61.5076V64.123H133.775V61.5076H141.292ZM134.985 50.0189V64.123H131.585V50.0189H134.985ZM140.323 55.6179V58.1462H133.775V55.6179H140.323ZM141.321 50.0189V52.644H133.775V50.0189H141.321ZM146.3 50.0189V64.123H142.909V50.0189H146.3ZM155.231 50.0189V64.123H151.831V50.0189H155.231ZM159.474 50.0189V52.644H147.685V50.0189H159.474ZM160.917 50.0189H166.468C167.553 50.0189 168.496 50.1803 169.297 50.5032C170.097 50.8261 170.714 51.304 171.147 51.9369C171.586 52.5698 171.805 53.3512 171.805 54.2811C171.805 55.0884 171.68 55.7632 171.428 56.3057C171.176 56.8482 170.824 57.297 170.372 57.6522C169.926 58.0009 169.406 58.2883 168.812 58.5143L167.698 59.144H163.039L163.019 56.5188H166.468C166.901 56.5188 167.259 56.4413 167.543 56.2863C167.827 56.1313 168.04 55.9118 168.183 55.6276C168.331 55.337 168.405 54.9915 168.405 54.5911C168.405 54.1842 168.331 53.8355 168.183 53.5449C168.034 53.2543 167.814 53.0315 167.524 52.8765C167.24 52.7215 166.888 52.644 166.468 52.644H164.317V64.123H160.917V50.0189ZM168.638 64.123L165.519 57.8847L169.122 57.8653L172.28 63.9777V64.123H168.638ZM183.565 61.5076V64.123H176.048V61.5076H183.565ZM177.259 50.0189V64.123H173.859V50.0189H177.259ZM182.597 55.6179V58.1462H176.048V55.6179H182.597ZM183.594 50.0189V52.644H176.048V50.0189H183.594ZM191.983 50.0189V64.123H188.583V50.0189H191.983ZM196.226 50.0189V52.644H184.437V50.0189H196.226ZM207.376 61.5076V64.123H199.859V61.5076H207.376ZM201.07 50.0189V64.123H197.67V50.0189H201.07ZM206.407 55.6179V58.1462H199.859V55.6179H206.407ZM207.405 50.0189V52.644H199.859V50.0189H207.405ZM220.55 50.0189V64.123H217.16L212.171 55.3467V64.123H208.771V50.0189H212.171L217.16 58.7952V50.0189H220.55Z" fill="white"/>
<defs>
<filter id="filter0_d_223_1635" x="0.833332" y="0.833332" width="273.333" height="112.333" filterUnits="userSpaceOnUse" color-interpolation-filters="sRGB">
<feFlood flood-opacity="0" result="BackgroundImageFix"/>
<feColorMatrix in="SourceAlpha" type="matrix" values="0 0 0 0 0 0 0 0 0 0 0 0 0 0 0 0 0 0 127 0" result="hardAlpha"/>
<feOffset/>
<feGaussianBlur stdDeviation="17.0833"/>
<feComposite in2="hardAlpha" operator="out"/>
<feColorMatrix type="matrix" values="0 0 0 0 1 0 0 0 0 0.294118 0 0 0 0 0.196078 0 0 0 0.65 0"/>
<feBlend mode="normal" in2="BackgroundImageFix" result="effect1_dropShadow_223_1635"/>
<feBlend mode="normal" in="SourceGraphic" in2="effect1_dropShadow_223_1635" result="shape"/>
</filter>
</defs>
</svg>
