<?xml version="1.0" encoding="UTF-8"?><svg id="Layer_2" xmlns="http://www.w3.org/2000/svg" viewBox="0 0 512 374.61"><defs><style>.cls-1{fill:#000001;}.cls-1,.cls-2{fill-rule:evenodd;}.cls-2{fill:#f5ca1f;}</style></defs><g id="Layer_1-2"><g><path class="cls-2" d="M280.36,253.98c3.46-.32,2.73-.33,6.27,0,.11,4.59,.29,25.99-.1,28.65-2.17,.03-4.48,.32-6.12-.23l-.04-28.42h0Zm231.64-169.17c-.03-.39-.07-.78-.13-1.16-.33-2.17,.02-4.49-.29-6.64-2.34-16.1-8.14-31.31-18.52-43.94-.55-.67-.9-1.18-1.5-1.82-2.91-3.05-5.3-6.17-8.7-8.8l-3.75-3.19c-1.31-1.02-2.59-2.01-3.92-3.02-5.35-4.03-11.56-7.28-17.93-9.83-7.02-2.81-13.47-4.43-22.06-5.7-16.96-2.51-32.68,2.1-48.69,5.29l-92.32,18.71c-7.63,1.53-15.44,2.92-23.13,4.63-12.93,2.88-33.89,6.87-46.84,8.67-16.13,2.24-32.21,5.7-48.32,7.49-3.88,.43-8.18,1.14-11.89,1.99-10.62,2.44-21.44,6.07-30.86,10.78l-4.69,2.25c-1.46,.9-3.04,1.63-4.48,2.46-18.93,10.92-30.65,20.9-46.52,36.75-.59,.59-1.12,1.04-1.65,1.67l-11.35,13.09c-9.48,11.76-17.84,24.18-25.61,37.15-5.57,9.29-12.06,22.31-16.19,32.38-1.37,3.34-2.71,6.39-4.05,9.82-1.35,3.46-2.35,6.69-3.7,10.17-2.86,7.39-7.56,24.85-9.15,32.48-3.4,16.28-5.76,32.67-5.76,50.06,0,9.07,1.44,16.97,3.32,24.14,3.06,11.69,9.01,22.17,16.42,31.55,2.37,2.99,5.22,6.4,8.19,8.7,.84,.65,1.12,1.1,1.86,1.76l3.82,3.12c3.88,3.05,7.94,5.81,12.34,8.18,16.76,9.02,36.99,12.69,56.28,9.41,7.65-1.3,15.39-3.14,23.09-4.66l125.76-25.39c7.94-1.59,15.15-3.25,23.11-4.35,3.82-.53,8.16-1.35,11.9-1.98l35.6-5.73c4.07-.69,8.12-1.33,12.07-1.81l11.86-1.72c5.6-1.13,10.97-2.43,16.24-4.28,1.8-.63,3.37-1.33,5.05-1.89,4.96-1.65,9.84-3.92,14.55-6.27,4.55-2.28,9.09-4.67,13.35-7.46,4.81-3.16,9.59-6.22,14.18-9.66,3.72-2.79,9.84-7.71,13.18-10.96,1.3-1.26,2.35-2.05,3.62-3.32l10.26-10.26c.62-.62,1.05-1.03,1.67-1.65,4.18-4.22,10.49-12.42,14.32-17.06l5.84-7.74c11.85-16.39,21.77-34.22,30-52.67,10.54-23.62,18.15-48.58,21.93-74.31,1.35-9.2,2.2-19.8,2.2-29.78v-5.65h0Zm-118.3,168.75c8.93-1.75,14.98,4.41,15.86,12.09,1.93,16.64-13.38,21.43-21.75,14.78-7.21-5.73-7.96-24.15,5.88-26.87h0Zm-62.29,3.05c.84-.09,2.45-1.77,3.97-2.43,4.31-1.89,11.22-1.12,12.86,4.56,.98,3.37,1.21,20.1,.65,23.61-.85,.46-2.11,.31-3.14,.31-1.25,0-1.54,.15-2.57-.18-1.45-.46-.67-12.65-.67-14.91,0-4.87,.68-9.02-5.21-9.06-2.28-.01-4.22,1.28-5.05,2.51-1.65,2.46,.11,15.91-.8,21.62l-6.26-.03,.04-28.64c1.44-.24,4.19-.32,5.86,.01l.31,2.63h0Zm-221.05,16.77c.38,3.74-2.75,6.57-4.68,7.86-6.11,4.12-20.07,3.03-20.01-13.37,.07-19.9,24.9-17.85,24.77-3.76l-5.86-.11c-.42-2.08-.98-3.63-2.37-4.51-3.57-2.27-10.07-1.81-10.16,8.69-.09,11.03,6.98,11.01,9.98,9.11,1.85-1.17,1.75-2.1,2.71-3.98l5.63,.07h0Zm38.94-11.24c-.57-8.31,14.15-11.73,20.03-6.11,4.05,3.86,2.84,12.42,2.87,19.98,0,2.96,.85,4.63,.89,6.65l-6.35-.02-.89-2.29c-1.57,.85-2.38,1.86-4.5,2.57-4.18,1.39-11.93-.65-12.8-7.3-.57-4.33,2.1-7.48,4.77-8.87,3.81-1.98,7.67-1.27,12.19-1.69,.82-3.49-.42-6.3-3.55-6.79-4.82-.75-5.65,1.79-6.66,3.86l-6.02,.02h0Zm69.66,11.54c.42,1.69,.82,2.75,2.08,3.65,1.18,.84,2.75,1.25,4.64,1.16,5.17-.24,5.52-4.06,4.11-5.69-2.37-2.74-11.56-1.82-15.02-7.3-1.75-2.76-.67-6.6,.95-8.51,1.65-1.95,4.45-3.3,7.55-3.6,4.74-.46,9.73,.9,12.12,4.75,.38,.62,.64,1.21,.84,1.9,.47,1.6,.17,1.68,.17,1.72l-.13,.62-5.97-.05c-.61-1.91-.83-2.71-2.24-3.5-5.12-2.88-10.85,2.65-6.55,5.36,1.78,1.12,6.36,1.81,8.79,2.67,10.95,3.87,7.59,15.79-4.31,16.37-4.6,.22-9.63-1.42-11.86-5.33-1.82-3.19-.92-3.72-.8-4.22l5.63-.02h0Zm63.14-30.63c5.01-1.73,6.68,4.94,3.17,6.28-5.24,2-7.47-4.79-3.17-6.28h0Zm-12.08-8.66c-36.11,0-62.86-25.07-61.7-61.85,.34-10.64,.7-17.52,3.9-27.01,7.86-23.3,26.94-37.29,55.08-37.29,34.19,0,54.84,23.78,54.84,58.27v15.69c0,1.26-.37,.95-1.73,.95h-71.2c-2.8,0-2.58,.14-1.77,2.93,.39,1.34,.95,2.98,1.52,4.23,1.36,2.95,2.74,4.93,4.52,6.94,3.26,3.69,8.39,6.62,15.27,7.66,6.74,1.02,13.81-.05,19.75-2.42,6.43-2.56,8.77-5.36,13.13-9.61,.83,.54,7.26,8.42,8.66,10.01l8.35,10.09c-.94,2.5-6.25,7.18-8.39,8.85-10.82,8.46-25.77,12.57-40.22,12.57h0Zm73.59-123.98c.33-3.41,.11-19.98,.11-24.77,0-3.57-.57-5.11,.83-5.42h30.47c7.57-.01,6.56-1.57,6.56,5.72,0,7.55-.52,17.13,.08,24.43,5.29,.54,15.54-.73,19.87,.31,.1,4.19,.24,22.84-.12,25.9l-19.7,.13c-.47,5.03-.13,47.97-.13,56.63,0,11.75,6.48,11.42,15.76,11.42,2.08,0,4.37-.57,5.36-.37l.41,26.66c-5,2.09-13.74,3.24-19.95,3.24-11.88,0-20.45-1.42-28.62-7.82-6.64-5.2-9.66-14.48-10.52-22.95-1.19-11.85,.42-61.64-.46-66.85l-15.26-.13c-.33-6.1-.09-17.43-.09-24.06,0-2.7-.31-2.04,6.68-2.04,2.83,0,5.92,.12,8.72-.05h0Zm-249.18,2.39c0-1.7-.3-2.41,1.51-2.41h96.55c2.03,0,1.55,.17,1.55,1.81l.09,14.48c0,4.14,.2,4.02-1.78,6.5l-51.97,69.26c.85,.62,.94,.35,2.03,.35l52.89,.12c.28,4.71,.33,24.63-.04,29.07l-103.03,.05c-.34-4.79-.13-14.39-.13-19.66,0-1.77,2.05-3.95,2.94-5.14l10.11-13.43c4.62-6.11,9-11.94,13.67-18,1.55-2.02,26.59-34.5,26.9-36.14-14.55,.4-34.63,.04-49.77,.04-1.73,0-1.51-.37-1.51-2.15v-24.74Z"/><path class="cls-1" d="M248.31,159.51c-2.12,0-1.31-1.46-.94-3.29,.86-4.19,2.22-8.35,4.6-11.71,4.14-5.85,9.04-7.15,15.95-7.15,18.19,0,18,19.58,16.94,22.07-6.22,.41-28.72,.08-36.55,.08h0Zm21.72,74.87c14.46,0,29.4-4.11,40.22-12.57,2.13-1.67,7.45-6.35,8.39-8.85l-8.35-10.09c-1.4-1.59-7.83-9.47-8.66-10.01-4.37,4.25-6.7,7.05-13.13,9.61-5.94,2.37-13.01,3.44-19.75,2.42-6.88-1.04-12.01-3.97-15.27-7.66-1.77-2.01-3.16-3.99-4.52-6.94-.57-1.25-1.13-2.89-1.52-4.23-.81-2.79-1.03-2.93,1.77-2.93h71.2c1.37,0,1.73,.31,1.73-.95v-15.69c0-34.5-20.65-58.27-54.84-58.27-28.14,0-47.22,13.99-55.08,37.29-3.2,9.49-3.57,16.38-3.9,27.01-1.17,36.78,25.58,61.85,61.7,61.85Z"/><path class="cls-1" d="M94.43,112.79v24.74c0,1.78-.23,2.15,1.51,2.15,15.14,0,35.23,.36,49.77-.04-.32,1.64-25.35,34.12-26.9,36.14-4.67,6.06-9.05,11.89-13.67,18l-10.11,13.43c-.89,1.18-2.94,3.37-2.94,5.14,0,5.27-.21,14.86,.13,19.66l103.03-.05c.37-4.43,.32-24.35,.04-29.07l-52.89-.12c-1.08,0-1.17,.27-2.03-.35l51.97-69.26c1.98-2.48,1.78-2.36,1.78-6.5l-.09-14.48c0-1.64,.48-1.81-1.55-1.81H95.94c-1.81,0-1.51,.71-1.51,2.41Z"/><path class="cls-1" d="M343.62,110.4c-2.79,.17-5.89,.05-8.72,.05-6.99,0-6.68-.66-6.68,2.04,0,6.64-.24,17.96,.09,24.06l15.26,.13c.88,5.22-.73,55,.46,66.85,.85,8.47,3.88,17.76,10.52,22.95,8.16,6.4,16.74,7.82,28.62,7.82,6.2,0,14.95-1.15,19.95-3.24l-.41-26.66c-.99-.2-3.28,.37-5.36,.37-9.29,0-15.76,.33-15.76-11.42,0-8.66-.34-51.6,.13-56.63l19.7-.13c.36-3.06,.23-21.71,.12-25.9-4.33-1.04-14.58,.22-19.87-.31-.6-7.3-.08-16.88-.08-24.43,0-7.29,1.01-5.73-6.56-5.73h-30.47c-1.4,.32-.83,1.86-.83,5.43,0,4.78,.22,21.36-.11,24.77Z"/><path class="cls-2" d="M248.31,159.51c7.83,0,30.33,.33,36.55-.08,1.07-2.49,1.25-22.07-16.94-22.07-6.91,0-11.81,1.3-15.95,7.15-2.38,3.36-3.74,7.52-4.6,11.71-.38,1.83-1.19,3.29,.94,3.29Z"/><path class="cls-1" d="M165.65,269.12c.32,4.16,.73,5.87-1.89,7.74-6.29,4.49-12.27-2.88-6.86-6.56,2.2-1.5,5.77-1.2,8.75-1.18h0Zm-16.35-6.98l6.02-.02c1.01-2.07,1.84-4.61,6.66-3.86,3.13,.49,4.37,3.3,3.55,6.79-4.52,.43-8.38-.29-12.19,1.69-2.67,1.39-5.34,4.54-4.77,8.87,.87,6.66,8.62,8.69,12.8,7.3,2.11-.7,2.93-1.72,4.5-2.57l.89,2.29,6.35,.02c-.04-2.02-.88-3.69-.89-6.65-.03-7.56,1.18-16.11-2.87-19.98-5.88-5.62-20.6-2.2-20.03,6.11Z"/><path class="cls-1" d="M394.39,258.74c10.55-3.36,11.78,16.94,3.96,19.17-5.53,1.58-8.63-2.64-9.02-7.38-.38-4.62,.17-10.23,5.06-11.79h0Zm-.7-5.18c-13.84,2.72-13.09,21.14-5.88,26.87,8.37,6.65,23.67,1.86,21.75-14.78-.89-7.68-6.94-13.85-15.86-12.09Z"/><path class="cls-1" d="M331.41,256.61l-.31-2.63c-1.67-.33-4.42-.25-5.86-.01l-.04,28.64,6.26,.03c.91-5.71-.86-19.16,.8-21.62,.83-1.23,2.77-2.53,5.05-2.51,5.89,.04,5.21,4.19,5.21,9.06,0,2.26-.79,14.44,.67,14.91,1.03,.33,1.32,.19,2.57,.18,1.03,0,2.29,.15,3.14-.31,.56-3.51,.32-20.24-.65-23.61-1.64-5.68-8.56-6.45-12.86-4.56-1.52,.66-3.14,2.34-3.97,2.43Z"/><path class="cls-1" d="M218.97,273.68l-5.63,.02c-.12,.49-1.02,1.02,.8,4.22,2.23,3.91,7.25,5.55,11.86,5.33,11.91-.58,15.26-12.5,4.31-16.37-2.43-.86-7-1.55-8.79-2.67-4.3-2.71,1.43-8.23,6.55-5.36,1.41,.79,1.63,1.59,2.24,3.5l5.97,.05,.13-.62s.3-.13-.17-1.72c-.2-.69-.45-1.28-.84-1.9-2.39-3.86-7.39-5.21-12.12-4.75-3.11,.3-5.91,1.64-7.55,3.6-1.61,1.91-2.69,5.75-.95,8.51,3.46,5.48,12.65,4.56,15.02,7.3,1.41,1.63,1.06,5.45-4.11,5.69-1.88,.09-3.46-.32-4.64-1.16-1.27-.9-1.66-1.96-2.08-3.65Z"/><path class="cls-1" d="M110.37,273.38l-5.63-.07c-.95,1.88-.85,2.81-2.71,3.98-3,1.9-10.07,1.92-9.98-9.11,.08-10.5,6.59-10.96,10.16-8.69,1.39,.89,1.95,2.43,2.37,4.51l5.86,.11c.14-14.09-24.7-16.14-24.77,3.76-.06,16.4,13.9,17.49,20.01,13.37,1.93-1.3,5.05-4.13,4.68-7.86Z"/><path class="cls-2" d="M394.39,258.74c-4.9,1.56-5.45,7.17-5.06,11.79,.39,4.74,3.49,8.96,9.02,7.38,7.82-2.24,6.59-22.53-3.96-19.17Z"/><path class="cls-1" d="M280.36,253.98l.04,28.42c1.64,.55,3.95,.26,6.12,.23,.39-2.66,.21-24.06,.1-28.65-3.53-.32-2.81-.31-6.27,0Z"/><path class="cls-2" d="M165.65,269.12c-2.98-.02-6.54-.32-8.75,1.18-5.41,3.68,.57,11.05,6.86,6.56,2.62-1.87,2.21-3.57,1.89-7.74Z"/><path class="cls-1" d="M282.11,243.04c-4.3,1.48-2.07,8.28,3.17,6.28,3.52-1.34,1.84-8-3.17-6.28Z"/></g></g></svg>