<svg width="44" height="24" viewBox="0 0 44 24" fill="none" xmlns="http://www.w3.org/2000/svg">
<path d="M0 20.1472C0 14.7148 0 9.28198 0 3.84953C0.062744 3.74213 0.0512049 3.61815 0.0674318 3.50282C0.308311 1.78619 1.79217 0.304906 3.50718 0.0670361C3.63447 0.049376 3.77041 0.0645132 3.89049 0H39.3384C39.4451 0.0688381 39.5709 0.045772 39.686 0.0627112C41.6631 0.353201 43.2206 2.04676 43.2238 4.17966C43.2317 9.40235 43.2278 14.625 43.2249 19.8477C43.2249 20.504 43.0889 21.1391 42.7781 21.7172C41.9873 23.1876 40.7533 23.9921 39.073 23.9935C27.4372 24.0032 15.8014 23.9989 4.16563 23.9982C3.98605 23.9982 3.80755 23.9899 3.62798 23.9676C1.88989 23.7524 0.441733 22.416 0.103852 20.7062C0.0670712 20.5203 0.0346174 20.3336 0 20.1472H0ZM18.5978 15.7095C18.6032 15.7668 18.6144 15.8032 18.6087 15.8367C18.578 16.0097 18.6447 16.0566 18.8196 16.0508C19.2451 16.0364 19.6717 16.0414 20.0976 16.049C20.2184 16.0512 20.2451 16.013 20.2447 15.8984C20.2411 14.1666 20.2407 12.4348 20.2454 10.7031C20.2454 10.5697 20.1996 10.5459 20.0803 10.5481C19.7204 10.5549 19.3601 10.5499 19.0003 10.551C18.8805 10.551 18.7435 10.5203 18.6458 10.5679C18.5499 10.6151 18.6465 10.769 18.5823 10.8811C17.9459 10.48 17.2546 10.3117 16.5089 10.4432C15.7556 10.5758 15.1466 10.955 14.69 11.5684C13.9212 12.6013 13.9277 14.026 14.7027 15.0507C15.0831 15.5535 15.5749 15.9041 16.1815 16.0793C17.035 16.3258 17.8388 16.1885 18.5986 15.7099L18.5978 15.7095ZM35.7973 10.8728C34.7396 10.4043 34.4876 10.3401 33.7862 10.4349C33.06 10.533 32.461 10.8782 31.9944 11.4405C31.1549 12.4518 31.0958 13.8916 31.8451 14.9638C32.218 15.4972 32.7142 15.8724 33.3369 16.0642C34.2063 16.3319 35.0274 16.1982 35.8113 15.7041C35.8113 15.7744 35.8175 15.8162 35.8103 15.8558C35.7811 16.0159 35.8456 16.0577 36.0032 16.0501C36.2906 16.036 36.5794 16.0476 36.8675 16.0454C37.0525 16.044 37.3024 16.1081 37.4052 16.0141C37.5224 15.9067 37.4402 15.6536 37.4405 15.4644C37.4431 13.8876 37.4398 12.3105 37.4452 10.7337C37.4456 10.5831 37.4034 10.542 37.2548 10.5467C36.9011 10.5575 36.5466 10.5492 36.1921 10.5506C36.0731 10.5513 35.9343 10.5229 35.8406 10.5737C35.7536 10.6209 35.8402 10.7726 35.7973 10.8725V10.8728ZM26.7423 11.1503C26.7423 10.9712 26.7351 10.8339 26.7445 10.6977C26.7524 10.5794 26.712 10.5459 26.5934 10.5477C26.1556 10.5549 25.7171 10.5546 25.2794 10.5477C25.1586 10.5459 25.1142 10.573 25.1146 10.7045C25.1189 12.4363 25.1185 14.1684 25.1146 15.9002C25.1146 16.0195 25.1485 16.0505 25.2657 16.0487C25.7034 16.0418 26.1419 16.0396 26.5797 16.0494C26.7239 16.0526 26.7704 16.0238 26.769 15.8677C26.7603 14.9627 26.7607 14.0578 26.7661 13.1531C26.7715 12.2474 27.5201 11.7075 28.391 11.9724C28.6856 12.0622 28.8882 12.2478 29.0069 12.5307C29.0992 12.7516 29.1147 12.9827 29.1143 13.2173C29.1132 14.1104 29.114 15.0031 29.1143 15.8962C29.1143 15.9719 29.093 16.0497 29.2225 16.0479C29.6963 16.0418 30.1705 16.044 30.6447 16.0469C30.7237 16.0472 30.7493 16.0202 30.7475 15.9434C30.7435 15.7816 30.7475 15.6198 30.7464 15.4579C30.7385 14.4153 30.7752 13.3719 30.7284 12.3303C30.7031 11.772 30.4402 11.3158 30.0183 10.9474C29.2575 10.2839 27.5994 10.1062 26.7427 11.1493L26.7423 11.1503ZM11.215 16.0476C10.4058 14.9354 9.62184 13.8538 8.8314 12.7765C8.74378 12.6568 8.7344 12.5916 8.84583 12.472C9.94709 11.2855 10.5147 9.87881 10.5623 8.2613C10.5659 8.13876 10.5385 8.09659 10.4076 8.09875C9.92149 8.10632 9.43505 8.10632 8.9486 8.09875C8.81951 8.09659 8.79246 8.13948 8.78813 8.26094C8.7463 9.46218 8.30349 10.494 7.46077 11.354C7.13155 11.6899 6.74282 11.9526 6.37032 12.2352C6.2964 12.291 6.2708 12.3249 6.33535 12.4132C7.19862 13.5936 8.05756 14.7771 8.91723 15.9604C8.95293 16.0097 8.9843 16.0497 9.05822 16.0494C9.76499 16.0465 10.4721 16.0476 11.2146 16.0476H11.215ZM4.24676 12.0524C4.24676 13.3294 4.24893 14.6063 4.24352 15.8832C4.2428 16.0166 4.27381 16.0533 4.41011 16.0508C4.9081 16.0418 5.40645 16.044 5.90479 16.0497C6.0191 16.0512 6.05516 16.0245 6.0548 15.9038C6.05119 13.3557 6.05047 10.8079 6.05552 8.25986C6.05552 8.11425 6.00468 8.09695 5.88063 8.09875C5.39455 8.10524 4.9081 8.10668 4.42201 8.09803C4.28102 8.09551 4.2428 8.13263 4.24352 8.27535C4.24929 9.53426 4.24676 10.7935 4.24676 12.0524V12.0524ZM11.7429 12.0521C11.7429 13.3283 11.745 14.6049 11.7396 15.8811C11.7393 16.0112 11.7645 16.0533 11.9037 16.0501C12.3714 16.04 12.8398 16.0429 13.3075 16.049C13.4164 16.0505 13.4489 16.0245 13.4485 15.9113C13.4453 13.3586 13.4449 10.8061 13.4489 8.25337C13.4489 8.11966 13.4013 8.09767 13.2826 8.09947C12.8268 8.1056 12.3707 8.10848 11.9149 8.09839C11.7699 8.09515 11.7385 8.13912 11.7393 8.27752C11.7447 9.5357 11.7425 10.7943 11.7425 12.0524L11.7429 12.0521ZM22.7642 11.2538C22.7642 11.0433 22.757 10.8764 22.7667 10.7106C22.7739 10.5881 22.7404 10.5452 22.6099 10.5477C22.1598 10.5557 21.7094 10.5564 21.2594 10.5474C21.1224 10.5445 21.0892 10.5841 21.0896 10.7175C21.0939 12.4377 21.0935 14.158 21.0896 15.8785C21.0896 16.005 21.109 16.0544 21.2536 16.0508C21.7037 16.0393 22.1541 16.0404 22.6041 16.0505C22.7422 16.0533 22.7703 16.0133 22.7692 15.8818C22.7627 15.0965 22.7685 14.3115 22.7649 13.5262C22.7631 13.1481 22.9063 12.8374 23.1879 12.5927C23.4811 12.3379 23.8262 12.1901 24.2142 12.1638C24.3353 12.1555 24.3613 12.1173 24.3598 12.0049C24.3541 11.5673 24.3526 11.1298 24.3602 10.6923C24.3624 10.5632 24.3151 10.5481 24.2023 10.5582C23.6502 10.6076 23.1706 10.8058 22.7638 11.2541L22.7642 11.2538ZM39.1725 16.1589C39.7404 16.1593 40.1987 15.7012 40.1998 15.1325C40.2009 14.5641 39.7422 14.1017 39.1768 14.1006C38.6103 14.0999 38.1516 14.5594 38.1505 15.1278C38.1498 15.698 38.6056 16.1582 39.1725 16.1586V16.1589Z" fill="white"/>
<path d="M18.5994 13.2932C18.603 14.0721 17.9468 14.7086 17.1354 14.7125C16.3172 14.7165 15.6425 14.0746 15.6465 13.2961C15.6505 12.5202 16.3136 11.8866 17.1235 11.8848C17.9349 11.883 18.5955 12.5133 18.5994 13.2929V13.2932Z" fill="white"/>
<path d="M34.3203 14.7132C33.5093 14.7088 32.8527 14.0731 32.8545 13.2939C32.8563 12.519 33.522 11.8843 34.3319 11.8857C35.1501 11.8872 35.8146 12.5302 35.8078 13.3144C35.8009 14.0882 35.132 14.7175 34.3203 14.7132Z" fill="white"/>
</svg>
