<svg width="111" height="24" viewBox="0 0 111 24" fill="none" xmlns="http://www.w3.org/2000/svg">
<path d="M42.8363 15.614V11.3697C42.8363 9.76827 41.8054 8.69015 40.1466 8.67606C39.1842 8.61443 38.2643 9.07612 37.7451 9.88139C37.2719 9.09996 36.4054 8.63747 35.4864 8.67606C34.6872 8.63787 33.9272 9.02081 33.4877 9.68333V8.83448H32V15.614H33.502V11.8593C33.502 10.6822 34.1587 10.0597 35.1753 10.0597C36.1917 10.0597 36.6629 10.6963 36.6629 11.8451V15.614H38.1563V11.8593C38.1563 10.6822 38.8416 10.0597 39.8296 10.0597C40.8176 10.0597 41.3314 10.6963 41.3314 11.8451V15.614H42.8363ZM65.0601 8.84014H62.6302V6.78594H61.1281V8.84014H59.7404V10.187H61.1281V13.274C61.1281 14.8472 61.7421 15.7839 63.5011 15.7839C64.1579 15.786 64.8022 15.6045 65.3599 15.2604L64.9316 13.9983C64.5325 14.2339 64.0796 14.3653 63.6153 14.3804C62.8728 14.3804 62.6273 13.9276 62.6273 13.2486V10.187H65.0573L65.0601 8.84014ZM77.7467 8.67039C77.0078 8.64906 76.3163 9.03016 75.9449 9.66358V8.84014H74.4715V15.614H75.9592V11.8168C75.9592 10.6851 76.4446 10.0738 77.4183 10.0738C77.7369 10.0693 78.0532 10.127 78.3492 10.2437L78.8061 8.85436C78.4661 8.73387 78.1079 8.67158 77.7467 8.67039ZM58.5668 9.37782C57.7246 8.88188 56.7562 8.63642 55.7771 8.67039C54.0468 8.67039 52.9217 9.49383 52.9217 10.8378C52.9217 11.9441 53.7497 12.6232 55.2803 12.8354L55.9799 12.9344C56.7936 13.0477 57.1819 13.2598 57.1819 13.6418C57.1819 14.1653 56.6394 14.4653 55.6229 14.4653C54.8028 14.4911 53.9979 14.2418 53.3386 13.7579L52.6619 14.9038C53.5281 15.504 54.5663 15.8126 55.6229 15.7839C57.596 15.7839 58.741 14.8614 58.741 13.5739C58.741 12.3828 57.8386 11.7602 56.3539 11.548L55.6543 11.449C55.0119 11.3641 54.495 11.2367 54.495 10.7841C54.495 10.2888 54.9804 9.99174 55.797 9.99174C56.5453 10.0028 57.2784 10.2023 57.9273 10.5718L58.5668 9.37782ZM98.4056 8.67039C97.6668 8.64906 96.9754 9.03016 96.6039 9.66358V8.84014H95.1305V15.614H96.6182V11.8168C96.6182 10.6851 97.1036 10.0738 98.0773 10.0738C98.3958 10.0693 98.7122 10.127 99.0081 10.2437L99.4651 8.85436C99.1251 8.73387 98.7668 8.67158 98.4056 8.67039ZM79.2487 12.2271C79.2487 14.2813 80.6935 15.7839 82.895 15.7839C83.7878 15.8276 84.6646 15.5389 85.3535 14.9745L84.6397 13.7833C84.1254 14.1714 83.4986 14.3848 82.8522 14.3917C81.6644 14.3917 80.7935 13.5258 80.7935 12.2242C80.7935 10.9226 81.6672 10.071 82.8522 10.0569C83.4986 10.0638 84.1254 10.2771 84.6397 10.6652L85.3535 9.47395C84.6646 8.90967 83.7878 8.62101 82.895 8.66473C80.6935 8.66473 79.2487 10.1673 79.2487 12.2215V12.2271ZM93.1774 12.2271V8.83171H91.6897V9.65502C91.1751 8.99698 90.3705 8.62681 89.531 8.66197C87.6151 8.66197 86.1045 10.1503 86.1045 12.2186C86.1045 14.287 87.6065 15.7753 89.531 15.7753C90.3705 15.8105 91.1751 15.4403 91.6897 14.7821V15.6027H93.1774V12.2271ZM87.6436 12.2271C87.6436 11.0359 88.4289 10.0597 89.7166 10.0597C90.9473 10.0597 91.7753 10.9963 91.7753 12.2271C91.7753 13.458 90.9473 14.3946 89.7166 14.3946C88.4289 14.3946 87.6436 13.4155 87.6436 12.2271ZM69.6944 8.67039C67.6957 8.67039 66.2907 10.1163 66.2907 12.2271C66.2907 14.3804 67.7499 15.7839 69.7943 15.7839C70.8153 15.8193 71.8134 15.4809 72.5984 14.8331L71.8702 13.7409C71.3024 14.1911 70.5987 14.4401 69.8714 14.4483C68.912 14.4483 68.0411 14.0097 67.8269 12.7902H72.9038C72.9182 12.6063 72.9325 12.4223 72.9325 12.2242C72.9325 10.1134 71.6018 8.66763 69.6858 8.66763L69.6944 8.67039ZM69.6659 9.98898C70.6253 9.98898 71.2393 10.5831 71.3963 11.633H67.8527C68.0098 10.6539 68.6093 9.98898 69.6686 9.98898H69.6659ZM106.972 12.2271V6.11816H105.484V9.66068C104.97 9.00264 104.165 8.63247 103.326 8.66763C101.41 8.66763 99.8991 10.156 99.8991 12.2242C99.8991 14.2926 101.401 15.781 103.326 15.781C104.165 15.8161 104.97 15.446 105.484 14.7878V15.6083H106.972V12.2271ZM108.711 14.9887C108.77 14.9885 108.828 15.0001 108.882 15.0227C108.934 15.0447 108.982 15.0764 109.022 15.1161C109.062 15.1549 109.094 15.201 109.116 15.2519C109.163 15.3584 109.163 15.4791 109.116 15.5858C109.094 15.6365 109.062 15.6826 109.022 15.7216C108.982 15.7611 108.934 15.7927 108.882 15.815C108.828 15.8379 108.77 15.8493 108.711 15.8489C108.533 15.8512 108.371 15.7474 108.3 15.5858C108.254 15.4791 108.254 15.3585 108.3 15.2519C108.344 15.148 108.428 15.0657 108.534 15.0227C108.592 14.9989 108.654 14.9873 108.717 14.9887H108.711ZM108.711 15.7527C108.756 15.7535 108.801 15.7448 108.842 15.7272C108.882 15.7104 108.917 15.6864 108.948 15.6565C109.08 15.5251 109.08 15.3126 108.948 15.1811C108.918 15.1511 108.882 15.1271 108.842 15.1104C108.801 15.093 108.756 15.0844 108.711 15.0849C108.665 15.0844 108.619 15.093 108.577 15.1104C108.404 15.1834 108.324 15.3813 108.398 15.5522C108.414 15.5911 108.438 15.6265 108.468 15.6565C108.499 15.6868 108.536 15.7108 108.577 15.7272C108.621 15.7456 108.669 15.7541 108.717 15.7527H108.711ZM108.737 15.2151C108.779 15.2121 108.822 15.2241 108.857 15.2491C108.885 15.2716 108.901 15.3062 108.899 15.3425C108.9 15.3734 108.888 15.4033 108.865 15.4245C108.839 15.4475 108.806 15.4615 108.771 15.4641L108.902 15.614H108.799L108.677 15.4641H108.637V15.614H108.551V15.2179L108.737 15.2151ZM108.637 15.2886V15.3962H108.737C108.754 15.4013 108.773 15.4013 108.791 15.3962C108.804 15.3874 108.812 15.3723 108.811 15.3565C108.812 15.3407 108.804 15.3257 108.791 15.3169C108.773 15.3118 108.754 15.3118 108.737 15.3169L108.637 15.2886ZM101.444 12.2271C101.444 11.0359 102.229 10.0597 103.517 10.0597C104.748 10.0597 105.576 10.9963 105.576 12.2271C105.576 13.458 104.748 14.3946 103.517 14.3946C102.229 14.3946 101.444 13.4155 101.444 12.2271ZM51.2169 12.2271V8.83171H49.7292V9.65502C49.2146 9.00264 48.4142 8.63602 47.5792 8.67039C45.6632 8.67039 44.1527 10.1587 44.1527 12.2271C44.1527 14.2955 45.6546 15.7839 47.5792 15.7839C48.4186 15.8189 49.2232 15.4487 49.7378 14.7907V15.6112H51.2255L51.2169 12.2271ZM45.6832 12.2271C45.6832 11.0359 46.4684 10.0597 47.7562 10.0597C48.9869 10.0597 49.815 10.9963 49.815 12.2271C49.815 13.458 48.9869 14.3946 47.7562 14.3946C46.4684 14.3946 45.6832 13.4184 45.6832 12.2271Z" fill="white"/>
<path d="M13.6962 5.96354C13.7956 5.8776 13.8967 5.79427 14.0004 5.71354C14.1033 5.79427 14.2053 5.8776 14.3047 5.96354C15.9969 7.43056 17.0692 9.58941 17.0692 12C17.0692 14.4097 15.9969 16.5686 14.3047 18.0356C14.2053 18.1215 14.1033 18.2049 14.0004 18.2865C13.8967 18.2049 13.7956 18.1215 13.6962 18.0356C12.0031 16.5686 10.9317 14.4097 10.9317 12C10.9317 9.58941 12.0031 7.43056 13.6962 5.96354Z" fill="white"/>
<path d="M14.5183 5.33681C15.7911 4.49219 17.3212 4 18.9654 4C23.4029 4 27 7.5816 27 12C27 16.4175 23.4029 20 18.9654 20C17.3212 20 15.7911 19.5069 14.5183 18.6623C14.5828 18.6094 14.6491 18.5564 14.7127 18.5026C16.6054 16.8628 17.6908 14.4922 17.6908 12C17.6908 9.50694 16.6054 7.13628 14.7118 5.49653C14.6491 5.44184 14.5828 5.38976 14.5183 5.33681Z" fill="white"/>
<path d="M13.4826 18.6623C13.4172 18.6094 13.3509 18.5564 13.2882 18.5026C11.3955 16.8628 10.3101 14.4931 10.3101 12C10.3101 9.50694 11.3955 7.13628 13.2882 5.49653C13.3509 5.44184 13.4172 5.38976 13.4826 5.33681C12.2089 4.49219 10.6797 4 9.0346 4C4.59709 4 1 7.5816 1 12C1 16.4175 4.59709 20 9.0346 20C10.6797 20 12.2089 19.5069 13.4826 18.6623Z" fill="white"/>
<path d="M26.7489 16.6467V16.9566H26.6914V16.7222L26.6033 16.9245H26.544L26.456 16.7231V16.9566H26.3985V16.6467H26.4795L26.5737 16.8602L26.667 16.6467H26.7489Z" fill="white"/>
<path d="M26.2328 16.6997V16.9566H26.1761V16.6997H26.0715V16.6467H26.3374V16.6997H26.2328Z" fill="white"/>
</svg>
