<svg width="50" height="24" viewBox="0 0 50 24" fill="none" xmlns="http://www.w3.org/2000/svg">
<path d="M38.0617 5.56432L41.9921 4.87822V19.8354H38.0617V5.56432ZM43.819 5.56432V19.8354H47.7496V4.87822L43.819 5.56432ZM32.4703 19.8354H36.4008V8.88508H32.4703V19.8354ZM6.47892 10.4494C5.98063 10.422 4.81814 10.3396 4.81814 9.32419C4.81814 8.0892 6.47892 8.0892 7.08782 8.0892C8.1673 8.0892 9.60664 8.41853 10.6031 8.72042C10.6031 8.72042 11.1568 8.91252 11.655 9.13208H11.7104V5.70154L11.655 5.6741C10.4648 5.26244 9.08075 4.85077 6.50652 4.85077C2.07777 4.87822 0.5 7.43054 0.5 9.62607C0.5 10.8885 1.0536 13.8799 6.11906 14.2093C6.56193 14.2367 7.69672 14.2916 7.69672 15.3619C7.69672 16.2402 6.75566 16.7616 5.17789 16.7616C3.4618 16.7616 1.77332 16.3225 0.776851 15.9108V19.3962C2.29921 19.7805 4.0154 20 6.00834 20C10.3541 20 12.2916 17.5849 12.2916 15.1698C12.2916 12.4528 10.1326 10.6964 6.47892 10.4494ZM30.2558 8.72042C26.6298 8.83019 24.7752 10.4494 24.7752 13.6604V19.8079H28.7335V14.8131C28.7335 12.8919 28.9826 12.0686 31.28 11.9863V8.80275C30.8924 8.72042 30.2558 8.72042 30.2558 8.72042ZM19.5714 8.88508C19.4884 9.10463 18.8518 10.8611 17.3294 12.6998V4.87822L13.2881 5.6741V19.8354H17.3571V15.4442C18.5196 17.2007 19.101 19.8354 19.101 19.8354H23.9726C23.502 17.8594 21.3983 14.2093 21.3983 14.2093C23.2806 11.849 24.1109 9.29674 24.2493 8.88508H19.5714ZM34.4356 7.84219C35.515 7.84219 36.3731 6.99142 36.3731 5.9211C36.3731 4.85077 35.515 4 34.4356 4C33.3561 4 32.4979 4.85077 32.4979 5.9211C32.4979 6.99142 33.3561 7.84219 34.4356 7.84219Z" fill="white"/>
</svg>
