<svg width="104" height="32" viewBox="0 0 104 32" fill="none" xmlns="http://www.w3.org/2000/svg">
<g clip-path="url(#clip0_223_2165)">
<path d="M28.8833 0.257266C27.5922 1.1822 26.4573 2.21754 25.4736 3.4189C25.3874 3.5244 25.2772 3.61926 25.2214 3.73948C24.8803 4.47223 24.3018 4.61044 23.5318 4.58591C21.7534 4.52866 19.9726 4.55483 18.1926 4.57691C17.7767 4.58182 17.3436 4.64888 16.9533 4.78627C16.4808 4.95228 16.2153 5.34483 16.2203 5.86332C16.2244 6.31066 16.5506 6.69094 17.0667 6.85368C17.6395 7.03442 18.2213 7.18653 18.7949 7.36644C19.0678 7.45231 19.3365 7.55781 19.5945 7.68048C21.0302 8.35844 21.7246 9.41341 21.5455 10.9811C21.2061 13.9629 19.832 16.2911 16.9779 17.5637C15.6844 18.1402 14.3005 18.3537 12.8986 18.3626C8.87342 18.388 4.84746 18.3782 0.822311 18.3815C0.784509 18.3815 0.747528 18.3667 0.666992 18.3504C1.22581 16.8088 1.7797 15.2803 2.33852 13.7388C2.53822 13.7388 2.7149 13.7388 2.89159 13.7388C6.17794 13.7388 9.46429 13.747 12.7498 13.7314C13.3621 13.729 13.9776 13.6603 14.5841 13.5744C15.0032 13.5147 15.2867 13.2342 15.4486 12.8384C15.7149 12.185 15.5226 11.6673 14.8577 11.4195C14.2833 11.2052 13.6858 11.0507 13.0966 10.8789C12.242 10.6303 11.4785 10.232 10.8465 9.59333C10.1488 8.88756 9.9623 8.03296 10.1562 7.10393C10.485 5.52884 11.0988 4.06497 12.0406 2.74994C13.1402 1.21492 14.6761 0.417556 16.5391 0.344771C18.7407 0.258901 20.9456 0.27444 23.1496 0.259719C24.9296 0.24827 26.7096 0.257266 28.4896 0.257266H28.8841H28.8833Z" fill="white"/>
<path d="M73.9099 0.268173C75.6274 0.268173 77.3244 0.252635 79.0206 0.273898C79.9772 0.286165 80.9337 0.341776 81.887 0.415378C82.2774 0.445637 82.6686 0.549498 83.0458 0.665626C85.0978 1.29861 85.9828 2.84017 85.5194 4.9313C84.912 7.67176 83.1247 9.37525 80.6305 10.4621C80.4826 10.5267 80.3355 10.5913 80.1793 10.6584C81.4564 13.0995 81.9906 15.7459 82.7088 18.3932C82.4171 18.3932 82.1763 18.3932 81.9347 18.3932C80.3601 18.3932 78.7856 18.3866 77.211 18.3989C76.9349 18.4014 76.8125 18.3449 76.7451 18.0456C76.3309 16.2154 75.8879 14.3908 75.4532 12.5647C75.422 12.4338 75.3817 12.3063 75.3127 12.0601C75.2206 12.2793 75.1631 12.4036 75.1155 12.5312C74.4276 14.3655 73.7348 16.1974 73.061 18.0366C72.9599 18.3122 72.8268 18.403 72.5317 18.4005C70.944 18.385 69.3555 18.3932 67.767 18.3924C67.6478 18.3924 67.5287 18.3817 67.3438 18.3736C69.5396 12.3177 71.7214 6.3003 73.9091 0.267355L73.9099 0.268173ZM75.9644 8.40206C76.3473 8.40206 76.6333 8.40615 76.9185 8.40206C78.8152 8.36935 80.0372 7.343 80.4045 5.47841C80.5582 4.69822 80.2632 4.22144 79.4767 4.10613C78.9261 4.02599 78.3615 4.02435 77.8035 4.02435C77.6959 4.02435 77.5356 4.17892 77.4904 4.29668C77.096 5.32303 76.7212 6.35673 76.3407 7.3888C76.2249 7.70284 76.1082 8.01606 75.9644 8.40288V8.40206Z" fill="white"/>
<path d="M58.2053 18.7404C57.5051 18.6333 56.7902 18.5834 56.1081 18.4076C53.9673 17.8572 52.696 16.2224 52.6031 14.0193C52.5193 12.0369 53.0732 10.196 53.8457 8.40747C54.9896 5.75779 56.5872 3.44258 59.0098 1.78407C61.1481 0.320201 63.5026 -0.321776 66.092 0.155822C68.5032 0.600708 69.8871 2.27148 69.9446 4.73635C69.9832 6.40058 69.5608 7.96995 68.9626 9.50333C68.0495 11.8447 66.8941 14.043 65.0771 15.8323C63.1796 17.7018 60.8967 18.6652 58.2045 18.7396L58.2053 18.7404ZM57.8683 12.4597C57.856 14.0945 58.3483 14.5794 59.5333 14.5549C60.2803 14.5394 60.9435 14.2867 61.4325 13.7281C61.8245 13.28 62.1902 12.7917 62.4712 12.27C63.3933 10.5624 64.0614 8.74932 64.5208 6.86755C64.6572 6.30817 64.6933 5.71199 64.6835 5.13462C64.6744 4.58833 64.3416 4.25875 63.7927 4.17452C63.4483 4.12136 63.0802 4.10582 62.7391 4.16716C61.693 4.35525 61.0249 5.08064 60.443 5.89109C59.5349 7.15623 58.9589 8.5833 58.4978 10.0537C58.2069 10.9827 58.0023 11.9396 57.8675 12.4605L57.8683 12.4597Z" fill="white"/>
<path d="M28.2735 18.7464C27.5339 18.6262 26.7762 18.573 26.0588 18.3735C24.0043 17.801 22.7716 16.1311 22.6952 13.95C22.6344 12.2269 23.0642 10.6035 23.6895 9.02272C24.7866 6.24955 26.3489 3.79695 28.7962 2.00432C31.0076 0.384251 33.4697 -0.345231 36.2178 0.160173C38.5665 0.591974 39.957 2.25048 40.0375 4.64093C40.0942 6.3346 39.6718 7.93014 39.0653 9.49051C38.1441 11.8597 36.9697 14.0751 35.1281 15.8808C33.2437 17.7283 30.9304 18.6671 28.2743 18.7464H28.2735ZM27.9596 12.7486C27.9497 13.9672 28.3458 14.4669 29.2745 14.5454C30.1209 14.6165 30.8885 14.4006 31.4826 13.7774C31.8187 13.425 32.1343 13.0357 32.3767 12.6153C33.4031 10.835 34.1009 8.91805 34.603 6.93487C34.7501 6.35177 34.7944 5.72697 34.778 5.12425C34.7632 4.55996 34.4353 4.28027 33.8823 4.16415C32.698 3.91553 31.8031 4.4332 31.0504 5.26409C29.9952 6.42865 29.3854 7.84181 28.8562 9.2926C28.4264 10.4694 28.0303 11.6569 27.9604 12.7495L27.9596 12.7486Z" fill="white"/>
<path d="M58.8619 0.26022C57.6621 1.11564 56.528 1.98988 55.5541 3.05221C55.2041 3.4333 54.863 3.82912 54.5696 4.25356C54.3888 4.51608 54.1933 4.58395 53.8941 4.5815C52.2103 4.5676 50.5264 4.57169 48.8426 4.57169C47.9698 4.57169 47.6904 4.77287 47.3962 5.6013C47.1834 6.20076 46.9722 6.80184 46.7429 7.452H51.5446C51.4994 7.6131 51.4748 7.72678 51.4353 7.83473C51.0606 8.87089 50.6743 9.90214 50.3144 10.944C50.224 11.2065 50.1073 11.2965 49.823 11.2924C48.4407 11.2744 47.0576 11.29 45.6754 11.2744C45.4099 11.2711 45.2982 11.3587 45.2119 11.6015C44.4525 13.7278 43.671 15.8459 42.9207 17.9747C42.8032 18.3084 42.6446 18.3975 42.3085 18.3942C40.789 18.3762 39.2695 18.3869 37.75 18.3869C37.616 18.3869 37.4821 18.3869 37.2988 18.3869C37.3506 18.2151 37.3827 18.0875 37.427 17.9641C39.0312 13.5406 40.6378 9.11705 42.2419 4.69354C43.0267 2.52963 44.4254 1.00524 46.7412 0.46876C47.2828 0.343636 47.8498 0.272487 48.4054 0.270034C51.8273 0.252042 55.2501 0.261038 58.672 0.261038C58.7345 0.261038 58.7978 0.261038 58.8602 0.261038L58.8619 0.26022Z" fill="white"/>
<path d="M85.3231 18.398C86.9971 13.7758 88.6538 9.20264 90.3286 4.57958H87.0217C87.1729 2.89082 86.73 1.44821 85.3855 0.291016H103.31C103.028 1.08102 102.75 1.85875 102.47 2.63566C102.286 3.14761 102.078 3.65219 101.918 4.17232C101.824 4.48063 101.684 4.59022 101.344 4.58613C99.4678 4.56568 97.5916 4.58367 95.7155 4.56895C95.4155 4.5665 95.2931 4.66464 95.1945 4.9386C93.6364 9.26561 92.0602 13.5861 90.5094 17.9155C90.3697 18.3064 90.1947 18.4168 89.7871 18.4087C88.3243 18.3792 86.8607 18.3972 85.3223 18.3972L85.3231 18.398Z" fill="white"/>
<path d="M41.7511 25.7812C40.6425 27.6278 39.5832 29.3567 38.5641 31.1092C38.2675 31.6187 37.9051 31.878 37.3142 31.8355C37.0011 31.8126 36.6847 31.8355 36.37 31.824C35.8588 31.8052 35.7865 31.7349 35.835 31.2401C35.9821 29.7214 36.139 28.2044 36.296 26.6874C36.4094 25.5899 36.5376 24.494 36.6412 23.3965C36.6806 22.9778 36.8803 22.7815 37.2978 22.7873C37.6257 22.7922 37.9544 22.7873 38.2823 22.7905C38.5469 22.7938 38.6217 22.9099 38.583 23.1831C38.302 25.1924 38.0374 27.2034 37.7695 29.2144C37.7432 29.4139 37.7243 29.6143 37.7629 29.8392C37.8344 29.7329 37.91 29.6298 37.9757 29.5211C39.1772 27.5248 40.3976 25.54 41.5645 23.5241C41.8801 22.9786 42.2589 22.7578 42.872 22.7595C43.8951 22.7619 43.9173 22.7562 43.8039 23.7564C43.5927 25.6103 43.3741 27.4626 43.1572 29.3158C43.1399 29.4638 43.1078 29.6094 43.0832 29.7566L43.1867 29.8008C43.2656 29.6879 43.3527 29.5799 43.4226 29.4622C44.638 27.4111 45.8502 25.3584 47.0648 23.3074C47.3368 22.8478 48.3797 22.5615 48.8382 22.8331C48.8974 22.8682 48.9385 23.0252 48.9105 23.0972C48.8382 23.2861 48.733 23.4644 48.6254 23.637C47.0525 26.1574 45.4713 28.6722 43.9083 31.1984C43.6437 31.6269 43.3116 31.8494 42.8071 31.8314C42.4381 31.8183 42.0675 31.8371 41.6985 31.8215C41.2547 31.8019 41.1701 31.6891 41.2185 31.2646C41.3977 29.6953 41.5768 28.1259 41.7486 26.5549C41.7716 26.3423 41.7519 26.1247 41.7519 25.7821L41.7511 25.7812Z" fill="white"/>
<path d="M80.9176 24.9417C80.362 26.4939 79.8427 27.9439 79.3233 29.393C79.094 30.0326 78.8475 30.6672 78.6371 31.3132C78.5229 31.6657 78.3059 31.8039 77.9484 31.8293C76.8333 31.9078 76.7922 31.8628 77.162 30.8397C78.0183 28.4746 78.8738 26.1095 79.7293 23.7445C80.0161 22.9512 80.2092 22.8154 81.0499 22.8154C81.1732 22.8154 81.2964 22.8154 81.4197 22.8154C82.419 22.8154 82.5275 22.9078 82.6787 23.8966C82.9351 25.578 83.189 27.2594 83.4454 28.9408C83.4545 29.0021 83.4882 29.0602 83.5227 29.1542C84.1554 27.4017 84.7734 25.69 85.3914 23.9783C85.4424 23.8377 85.4802 23.6905 85.5484 23.5588C85.6692 23.3274 85.7686 22.9626 85.9511 22.9095C86.3422 22.7966 86.7852 22.8073 87.1994 22.8449C87.4706 22.8694 87.3432 23.1098 87.2857 23.2685C86.6989 24.8927 86.1097 26.5152 85.5213 28.1385C85.1827 29.0716 84.8441 30.0048 84.5039 30.937C84.2458 31.6453 84.0059 31.8146 83.2646 31.817C82.004 31.8203 81.9695 31.7818 81.7731 30.5257C81.5232 28.9261 81.257 27.3289 81.0014 25.7293C80.9644 25.4995 80.9505 25.2656 80.9159 24.9401L80.9176 24.9417Z" fill="white"/>
<path d="M16.2075 26.9349C17.2059 27.3561 17.5092 27.994 17.1599 29.0007C16.583 30.6658 15.3035 31.5057 13.6303 31.7109C12.5086 31.8483 11.3622 31.7943 10.2264 31.8033C9.83034 31.8066 9.73583 31.5989 9.90019 31.1417C10.4483 29.619 11.0039 28.0987 11.5561 26.5776C11.9276 25.5553 12.2965 24.5314 12.6705 23.51C12.8776 22.9432 13.0649 22.8083 13.6763 22.8189C14.7019 22.8361 15.7341 22.8009 16.7507 22.9089C18.0425 23.0455 18.4945 23.8821 18.0425 25.099C17.7146 25.9814 17.0835 26.5686 16.2066 26.9358L16.2075 26.9349ZM11.9465 30.4474C12.6335 30.4106 13.249 30.4302 13.8448 30.3313C14.5565 30.2135 15.0323 29.7572 15.246 29.0588C15.4448 28.4094 15.181 27.9678 14.5121 27.8975C14.0387 27.8476 13.5588 27.8615 13.0814 27.8607C13.0016 27.8607 12.8726 27.9106 12.8504 27.9695C12.5505 28.7636 12.2653 29.5634 11.9465 30.4466V30.4474ZM13.3797 26.4958C13.8621 26.4958 14.3001 26.5269 14.7315 26.4884C15.4522 26.4238 16.1113 25.7606 16.2107 25.0524C16.2814 24.5535 16.0719 24.2624 15.5648 24.2166C15.1851 24.1822 14.8005 24.1888 14.4184 24.1969C14.3305 24.1986 14.1924 24.264 14.1653 24.3343C13.8958 25.0409 13.6451 25.7548 13.3788 26.4958H13.3797Z" fill="white"/>
<path d="M93.5015 28.0693C92.9468 28.0693 92.4677 28.0603 91.9894 28.0726C91.7026 28.0799 91.6114 27.9679 91.7026 27.7013C91.7642 27.5214 91.8267 27.3415 91.8875 27.1615C92.0083 26.8042 92.2392 26.6627 92.6328 26.675C93.4809 26.7019 94.3307 26.679 95.1796 26.6848C95.6365 26.688 95.7524 26.8402 95.5987 27.2744C95.1722 28.479 94.7432 29.6837 94.2822 30.8752C94.1975 31.0927 93.9896 31.3438 93.7801 31.419C92.4373 31.9015 91.0566 32.1354 89.6333 31.8255C88.1483 31.5016 87.3898 30.4818 87.5583 28.9722C87.8352 26.495 89.6144 23.6679 92.6542 22.8787C93.762 22.5917 94.8689 22.5614 95.9734 22.8967C96.0778 22.9286 96.1822 22.9629 96.2816 23.0063C96.9111 23.2835 96.9892 23.4643 96.7656 24.1136C96.7435 24.1782 96.7229 24.2428 96.6974 24.3058C96.4131 25.0164 96.3679 25.032 95.7055 24.6419C94.3101 23.82 92.5268 24.0343 91.2218 25.2021C90.3359 25.9945 89.8026 27.0004 89.6021 28.1585C89.3276 29.7474 90.2357 30.6307 91.8669 30.4123C92.4266 30.3379 92.8679 30.1711 92.9928 29.5095C93.0815 29.0376 93.31 28.5927 93.5007 28.0677L93.5015 28.0693Z" fill="white"/>
<path d="M31.7873 27.6304C32.3017 28.0589 32.3847 28.642 32.4143 29.2505C32.4447 29.863 32.5063 30.4731 32.531 31.0856C32.5557 31.7031 32.4472 31.8094 31.8432 31.8274C31.5835 31.8355 31.3221 31.8159 31.0633 31.8323C30.6844 31.8568 30.5258 31.7121 30.5217 31.3187C30.5135 30.5835 30.4773 29.8483 30.4198 29.1147C30.3565 28.3034 29.7969 27.9174 29.0252 28.1432C28.9291 28.171 28.8444 28.3255 28.8025 28.4392C28.4541 29.3829 28.1015 30.3259 27.7827 31.2803C27.6528 31.6687 27.4178 31.8077 27.0299 31.8266C25.7356 31.8912 25.7265 31.8871 26.1605 30.6898C27.0233 28.3124 27.887 25.9351 28.7524 23.5585C28.9841 22.9231 29.1411 22.8062 29.8018 22.816C30.8545 22.8315 31.9163 22.7833 32.9583 22.9018C34.2921 23.054 34.7655 23.9167 34.3389 25.1901C33.9552 26.3374 33.2854 26.9819 31.7848 27.6296L31.7873 27.6304ZM29.423 26.739C29.8709 26.739 30.2818 26.7684 30.6869 26.7333C31.5728 26.6564 32.2426 26.0496 32.4299 25.1991C32.5425 24.6888 32.3634 24.3674 31.8374 24.2831C31.3969 24.212 30.9425 24.2234 30.4938 24.2152C30.4239 24.2136 30.3113 24.2897 30.2867 24.3551C29.9941 25.1394 29.7139 25.9285 29.423 26.739Z" fill="white"/>
<path d="M3.31078 31.9869C2.9985 31.9533 2.68211 31.937 2.37393 31.8822C1.08536 31.6548 0.452582 30.7724 0.709803 29.4942C0.82732 28.9119 1.03688 28.3444 1.23657 27.7817C1.7732 26.2696 2.33449 24.7665 2.86948 23.2535C2.97056 22.9673 3.13081 22.8168 3.42665 22.8103C3.75373 22.8029 4.0808 22.7988 4.40787 22.8037C4.75385 22.8087 4.81055 22.964 4.69304 23.2797C4.09148 24.8981 3.49733 26.5199 2.92371 28.1489C2.78483 28.5415 2.68046 28.961 2.6517 29.374C2.61061 29.9661 2.97138 30.3472 3.56636 30.4273C4.63715 30.5713 5.47538 30.1664 6.06954 29.2914C6.28814 28.9692 6.44428 28.5971 6.5807 28.2299C7.18554 26.5975 7.78298 24.9628 8.35741 23.3206C8.48068 22.9689 8.67298 22.7972 9.03375 22.7988C9.34685 22.8005 9.66078 22.7988 9.97388 22.8136C10.2163 22.825 10.31 22.9297 10.2138 23.1889C9.5219 25.0642 8.885 26.9606 8.1421 28.8162C7.32771 30.8509 5.53537 31.973 3.30996 31.9885L3.31078 31.9869Z" fill="white"/>
<path d="M70.2988 31.977C70.0893 31.9484 69.7318 31.9272 69.3866 31.8478C68.1712 31.5698 67.5935 30.7348 67.8548 29.522C68.0175 28.7688 68.2953 28.0377 68.5517 27.3082C69.0209 25.9744 69.5222 24.6511 69.9874 23.3165C70.1024 22.9869 70.275 22.8045 70.6267 22.8029C70.6538 22.8029 70.6809 22.7955 70.7081 22.7923C71.9112 22.6426 72.0114 22.7628 71.612 23.8636C71.0705 25.3594 70.5232 26.8535 69.9964 28.355C69.8854 28.6715 69.8082 29.0125 69.7909 29.3462C69.7597 29.9612 70.1131 30.3496 70.7253 30.4281C71.7969 30.5655 72.6467 30.1656 73.217 29.2758C73.5063 28.8244 73.6936 28.301 73.8835 27.7932C74.4398 26.3023 74.9839 24.8073 75.509 23.3059C75.6257 22.9722 75.8056 22.7988 76.1524 22.8013C76.4927 22.8037 76.8345 22.7996 77.1739 22.8217C77.3769 22.8356 77.4468 22.9444 77.3671 23.1611C76.6603 25.0748 76.0333 27.0203 75.2444 28.8988C74.3733 30.972 72.6787 31.9272 70.298 31.9762L70.2988 31.977Z" fill="white"/>
<path d="M51.3945 26.4323C52.2713 26.4323 53.0644 26.4421 53.8574 26.4274C54.2034 26.4208 54.3143 26.5411 54.1902 26.8666C54.1516 26.968 54.1294 27.0759 54.0916 27.1773C53.8582 27.8038 53.8204 27.8291 53.1457 27.8291C52.5023 27.8291 51.8588 27.8389 51.2162 27.8242C50.977 27.8185 50.8546 27.8806 50.774 28.1227C50.5291 28.8555 50.2522 29.5776 49.9646 30.3692H50.4338C51.2548 30.3692 52.0766 30.3684 52.8976 30.3692C53.361 30.37 53.3947 30.4175 53.2649 30.8705C53.246 30.936 53.223 30.9997 53.2 31.0635C52.9493 31.7717 52.8976 31.8085 52.1489 31.8085C50.8759 31.8085 49.603 31.811 48.33 31.8077C47.8057 31.8061 47.6857 31.645 47.8624 31.1551C48.7894 28.5856 49.7205 26.0177 50.6549 23.4506C50.834 22.9591 51.0534 22.816 51.5794 22.816C52.9345 22.8143 54.2897 22.8274 55.644 22.8078C56.0343 22.8021 56.1042 22.9395 55.9834 23.2658C55.9505 23.3549 55.9283 23.4481 55.8963 23.5373C55.6538 24.2087 55.6095 24.2389 54.8994 24.2389C54.1056 24.2389 53.3117 24.2471 52.5179 24.234C52.2771 24.2299 52.1505 24.2946 52.0716 24.5366C51.8695 25.1533 51.6369 25.7601 51.3937 26.4315L51.3945 26.4323Z" fill="white"/>
<path d="M22.0196 26.4326C22.8709 26.4326 23.664 26.4309 24.457 26.4326C24.8523 26.4342 24.9156 26.5152 24.8128 26.893C24.7701 27.05 24.7011 27.1997 24.6485 27.3534C24.5277 27.7084 24.3025 27.8564 23.9064 27.8376C23.2095 27.8049 22.5102 27.8204 21.8125 27.8359C21.6908 27.8384 21.4994 27.9136 21.4632 28.0036C21.1649 28.7601 20.8953 29.528 20.5921 30.3613H23.9327C23.9541 30.9027 23.7774 31.3206 23.4939 31.6902C23.4289 31.7745 23.2498 31.8039 23.1232 31.8047C21.713 31.8121 20.3028 31.8129 18.8926 31.8072C18.4464 31.8056 18.3207 31.633 18.4727 31.2102C19.412 28.6006 20.3579 25.9934 21.3054 23.3863C21.4328 23.0371 21.6711 22.8162 22.0689 22.8154C23.5201 22.8154 24.9714 22.8154 26.4227 22.8162C26.4876 22.8162 26.5534 22.8359 26.6487 22.8506C26.6463 23.3282 26.4983 23.7461 26.2165 24.101C26.1376 24.2008 25.9255 24.2294 25.7735 24.2319C24.9386 24.2441 24.102 24.2613 23.2687 24.227C22.8931 24.2114 22.7411 24.3472 22.6375 24.6825C22.4625 25.2517 22.2431 25.8078 22.0196 26.4301V26.4326Z" fill="white"/>
<path d="M61.3001 31.9962C60.9698 31.9013 60.3904 31.759 59.8299 31.5644C59.4486 31.4319 59.3253 31.1326 59.4881 30.7417C59.5817 30.516 59.6557 30.2821 59.7576 30.0596C59.9022 29.7415 60.1003 29.6818 60.3994 29.9141C61.0749 30.4375 61.8417 30.6133 62.6799 30.4187C63.1976 30.2984 63.6036 30.0163 63.8551 29.5403C64.1156 29.0472 64.0449 28.6964 63.5847 28.3733C63.2847 28.1623 62.9544 27.9939 62.6347 27.8115C61.4382 27.1303 61.1678 26.3493 61.6921 25.0784C62.4794 23.1713 64.8971 22.1335 66.8316 22.872C67.4562 23.1107 67.5211 23.2506 67.2984 23.8828C67.2852 23.9212 67.2639 23.9572 67.2499 23.9956C67.0538 24.5163 66.7111 24.6441 66.2218 24.3792C65.6408 24.0643 65.0171 23.9433 64.4106 24.2189C64.0991 24.3604 63.8107 24.6425 63.6192 24.9312C63.3546 25.3303 63.4532 25.6795 63.8477 25.9608C64.1682 26.189 64.524 26.3689 64.8683 26.5635C66.1183 27.2693 66.4108 28.0895 65.8003 29.3874C64.9653 31.1604 63.4532 31.8768 61.3001 31.9962Z" fill="white"/>
<path d="M56.0666 31.8416C55.1659 31.8457 55.1363 31.8048 55.4363 30.978C56.346 28.4739 57.2697 25.9747 58.1507 23.4607C58.3199 22.9782 58.5763 22.8008 59.0596 22.768C60.1608 22.6928 60.238 22.7746 59.8723 23.7846C59.0028 26.1873 58.1342 28.5908 57.2648 30.9935C56.9738 31.7974 56.9163 31.8367 56.0666 31.8408V31.8416Z" fill="white"/>
<path d="M8.46461 22.0117C7.78334 22.01 7.64528 21.8048 7.88689 21.1505C8.15644 20.421 8.73416 20.1299 9.48035 20.3303C9.72113 20.3949 9.81482 20.5233 9.7992 20.7686C9.75072 21.5357 9.24367 22.0133 8.46461 22.0117Z" fill="white"/>
<path d="M5.45489 22.0098C4.76705 22.0098 4.62241 21.8029 4.86073 21.156C5.12946 20.4249 5.69732 20.1345 6.45008 20.3259C6.69004 20.3872 6.81085 20.5107 6.77058 20.7561C6.64402 21.5223 6.29722 22.0596 5.45571 22.0098H5.45489Z" fill="white"/>
</g>
<defs>
<clipPath id="clip0_223_2165">
<rect width="102.658" height="31.9974" fill="white" transform="translate(0.65332)"/>
</clipPath>
</defs>
</svg>
