<svg width="88" height="33" viewBox="0 0 88 33" fill="none" xmlns="http://www.w3.org/2000/svg">
<path d="M0.996094 32.0031C1.22722 30.6082 1.44004 29.3133 1.65744 28.0196C2.59339 22.4379 3.53049 16.8562 4.46873 11.2757C5.07515 7.66791 5.68844 4.06014 6.28228 0.450082C6.3372 0.113434 6.46306 -0.024442 6.79488 0.010027C6.92646 0.0238147 7.06147 0.012325 7.1942 0.012325C33.5198 0.012325 59.8444 0.012325 86.17 0.012325H86.995C86.8554 0.891286 86.7318 1.7105 86.5945 2.52742C85.2295 10.6449 83.8633 18.7635 82.496 26.881C82.234 28.4401 81.9605 29.9981 81.7111 31.5607C81.6596 31.8859 81.5417 32.0456 81.2008 32.0065C81.0509 31.9893 80.8964 32.0042 80.7442 32.0042C54.4575 32.0042 28.1696 32.0042 1.88285 32.0042C1.61854 32.0042 1.35537 32.0042 0.996094 32.0042L0.996094 32.0031ZM49.6541 10.6621C47.2937 10.6862 45.471 11.4032 44.1265 13.1106C42.0418 15.7589 42.7935 19.4322 45.6758 20.7868C48.5237 22.1242 52.2126 21.0143 53.8476 18.3257C55.6909 15.2948 54.3797 11.7824 51.0592 10.8954C50.5306 10.754 49.9745 10.7138 49.6541 10.6621ZM27.03 21.3234C29.141 21.2051 31.1468 20.1526 32.3059 17.8076C33.7521 14.8834 32.3711 11.7513 29.2852 10.908C27.5872 10.4438 25.9167 10.6035 24.3537 11.4262C22.4726 12.4154 21.3239 13.9654 21.1591 16.1163C20.9268 19.161 23.3479 21.4567 27.03 21.3234ZM59.3363 17.973C59.3878 17.965 59.4404 17.9569 59.4919 17.9489C59.9839 18.8692 60.4691 19.7941 60.976 20.7076C61.0675 20.8742 61.2414 21.1108 61.3833 21.1143C62.5138 21.1476 63.6454 21.1327 64.912 21.1327C64.0836 19.8757 63.3353 18.7394 62.611 17.641C63.1808 17.2549 63.7586 16.9493 64.2301 16.5253C65.2026 15.6475 65.5138 14.5066 65.2141 13.2439C64.9223 12.0122 63.9943 11.4101 62.8479 11.0907C62.5927 11.0195 62.3261 10.9586 62.0629 10.9517C60.6361 10.9137 59.2093 10.9114 57.7837 10.8597C57.3374 10.8437 57.2013 11.0137 57.1372 11.4285C56.8248 13.4438 56.4816 15.4533 56.152 17.4652C55.9564 18.6635 55.7664 19.8619 55.5616 21.1407C56.5399 21.1407 57.4495 21.1258 58.358 21.1476C58.7288 21.1568 58.8397 21.0074 58.8889 20.6582C59.0137 19.7608 59.1853 18.8692 59.3375 17.9753L59.3363 17.973ZM21.5104 12.0214C20.1339 11.2412 18.6876 10.6862 17.0858 10.669C15.9645 10.6575 14.8843 10.8632 13.9507 11.548C12.3271 12.7372 12.2767 14.8409 13.8591 16.0726C14.2768 16.3978 14.7585 16.6414 15.2162 16.9137C15.6246 17.1561 16.0629 17.356 16.4485 17.6306C16.9473 17.9868 16.8695 18.4326 16.2894 18.6452C16.0972 18.7152 15.8821 18.7463 15.6761 18.7509C14.5777 18.7738 13.6463 18.3154 12.7699 17.711C12.6051 17.5984 12.4483 17.4755 12.2172 17.3066C12.0696 18.1706 11.9575 18.9416 11.8007 19.7034C11.7298 20.0492 11.8465 20.2261 12.1291 20.3927C13.9255 21.4532 15.8306 21.6727 17.7849 20.9937C18.3833 20.7857 18.9794 20.3594 19.3959 19.8769C20.452 18.6509 20.2003 16.8505 18.8444 15.8474C18.0835 15.2856 17.2036 14.8892 16.4015 14.379C16.2105 14.2572 15.9839 13.9539 16.0182 13.7816C16.0548 13.5954 16.3638 13.4415 16.5789 13.3197C16.7013 13.2507 16.8752 13.268 17.0263 13.2611C18.2185 13.214 19.2712 13.5805 20.1465 14.3618C20.6019 13.5794 21.039 12.8279 21.5104 12.0179V12.0214ZM37.8712 13.6023C38.8335 13.6023 39.7317 13.5449 40.6196 13.6184C41.496 13.6908 42.0761 13.4771 42.5373 12.6464C42.9 11.9926 43.5487 11.4986 44.0831 10.9183C41.8027 10.9183 39.5223 10.8471 37.2499 10.9436C35.7773 11.0068 34.8517 12.042 34.6171 13.5093C34.3734 15.0339 34.1114 16.5552 33.8631 18.0799C33.6995 19.0841 33.5427 20.0894 33.3745 21.1499C34.3334 21.1499 35.2075 21.1246 36.0806 21.1603C36.5314 21.1786 36.6607 21.0074 36.7156 20.5858C36.8289 19.7057 37.0039 18.8336 37.1584 17.9305C38.3278 17.9305 39.4308 17.9408 40.5326 17.919C40.6985 17.9156 40.9846 17.7903 41.0063 17.6789C41.1539 16.9389 41.2455 16.1875 41.3679 15.3545H37.5817C37.6836 14.7341 37.7717 14.1975 37.8689 13.6L37.8712 13.6023ZM65.4051 10.8977C66.3045 11.6824 66.7599 12.5395 66.8949 13.6081H69.5746C69.1592 16.1324 68.7553 18.59 68.3389 21.1235C69.3824 21.1235 70.3664 21.1361 71.3492 21.1062C71.4568 21.1028 71.6204 20.8661 71.6479 20.7167C71.8229 19.7803 71.966 18.8393 72.1216 17.8995C72.3573 16.4771 72.5953 15.0558 72.8378 13.6C73.7257 13.6 74.561 13.6104 75.3951 13.5908C75.553 13.5874 75.8276 13.4863 75.8471 13.3898C76.0118 12.5786 76.1285 11.7582 76.267 10.9H65.4029L65.4051 10.8977Z" fill="white"/>
<path d="M51.4332 15.7147C51.4252 17.3634 50.1288 18.6491 48.4869 18.6342C47.1116 18.6215 46.1813 17.6909 46.1905 16.3339C46.2008 14.6944 47.5098 13.3696 49.1173 13.3731C50.5053 13.3754 51.4401 14.321 51.4332 15.7147Z" fill="white"/>
<path d="M29.604 15.7261C29.596 17.3772 28.3019 18.6526 26.652 18.6342C25.279 18.6193 24.3487 17.6805 24.3625 16.3248C24.3796 14.6829 25.6886 13.3685 27.2996 13.3731C28.6841 13.3777 29.6097 14.3221 29.6029 15.725L29.604 15.7261Z" fill="white"/>
<path d="M59.7344 15.5897C59.8351 14.9555 59.9346 14.3201 60.0536 13.5732C60.4861 13.6192 60.9346 13.5882 61.3168 13.7329C61.5834 13.8341 61.9061 14.1615 61.9335 14.4177C61.9656 14.713 61.7813 15.2025 61.5479 15.3197C61.0353 15.577 60.4312 15.6517 59.8648 15.8022L59.7355 15.5908L59.7344 15.5897Z" fill="white"/>
</svg>
